<svg xmlns="http://www.w3.org/2000/svg" xmlns:xlink="http://www.w3.org/1999/xlink" xmlns:lucid="lucid" width="260" height="193.33"><g transform="translate(0 0)" lucid:page-tab-id="0_0"><path d="M0-60h260v165.3H0z" stroke="#000" stroke-opacity="0" stroke-width="2" fill="#fff" fill-opacity="0"/><use xlink:href="#a" transform="matrix(1,0,0,1,4.999999999999886,-55) translate(10.751581101190482 212.73716517857142)"/><defs><path d="M72-174l153-62v-962l-153-62v-174l528-10 307 682 322-672 491-10v184l-147 62v962l153 62V0h-610v-174l160-62v-770c-84 217-192 411-287 617l-221 10-236-485-34-107v735l157 62V0H72v-174" id="b"/><path d="M891-471h194V0H61v-174l154-62v-962l-154-62v-174l625-10v184l-154 62v952h314" id="c"/><g id="a"><use transform="matrix(0.07905505952380952,0,0,0.07905505952380952,0,0)" xlink:href="#b"/><use transform="matrix(0.07905505952380952,0,0,0.07905505952380952,142.14099702380952,0)" xlink:href="#c"/></g></defs></g></svg>