<svg xmlns="http://www.w3.org/2000/svg" xmlns:xlink="http://www.w3.org/1999/xlink" xmlns:lucid="lucid" width="142.19" height="143.45"><g transform="translate(0 0)" lucid:page-tab-id="0_0"><path d="M4.28 9.92c0-2.76 2.24-5 5-5H132.9c2.77 0 5 2.24 5 5v123.62c0 2.76-2.23 5-5 5H9.28c-2.76 0-5-2.24-5-5z" stroke="#000" stroke-opacity="0" stroke-width="2" fill="#666"/><use xlink:href="#a" transform="matrix(1,0,0,1,9.284709393609262,9.91769547325103) translate(20.026700745884767 86.15571952160495)"/><defs><path fill="#fff" d="M1235-1014c0 352-223 513-584 512H543v266l153 62V0H72v-174l153-62v-962l-153-62v-174c221-4 438-10 665-10 291 0 498 151 498 430zM651-741c163 1 267-75 267-232 1-134-76-225-211-225H543v457h108" id="b"/><path fill="#fff" d="M758-1444c257 0 451 106 450 354 0 173-82 286-245 338 164 47 292 141 292 328 0 283-177 424-532 424H72v-174l153-62v-962l-153-62v-174c228-4 452-10 686-10zm-96 590c140 1 228-57 229-190 2-102-73-154-174-154H543v344h119zm270 430c-3-161-98-214-270-215H543v393h170c131 1 218-55 219-178" id="c"/><g id="a"><use transform="matrix(0.032016246570644724,0,0,0.032016246570644724,0,0)" xlink:href="#b"/><use transform="matrix(0.032016246570644724,0,0,0.032016246570644724,40.820714377572024,0)" xlink:href="#c"/></g></defs></g></svg>