<?xml version="1.0" encoding="utf-8"?>
<!-- Generator: Adobe Illustrator 15.0.1, SVG Export Plug-In . SVG Version: 6.00 Build 0)  -->
<!DOCTYPE svg PUBLIC "-//W3C//DTD SVG 1.1//EN" "http://www.w3.org/Graphics/SVG/1.1/DTD/svg11.dtd">
<svg version="1.1" id="Layer_1" xmlns="http://www.w3.org/2000/svg" xmlns:xlink="http://www.w3.org/1999/xlink" x="0px" y="0px"
	 width="393.442px" height="109.017px" viewBox="0 0 393.442 109.017" enable-background="new 0 0 393.442 109.017"
	 xml:space="preserve" style="fill:#ffffff">
<g>
	<path d="M32.303,4.239c3.329,0.162,6.334,1.227,9.016,3.191c4.185,3.375,6.277,7.098,6.277,11.166
		c0,5.295-1.896,9.283-5.688,11.962c-3.214,2.266-7.503,3.398-12.866,3.398h-7.316c-0.833,0-1.538,0.289-2.116,0.867
		s-0.866,1.283-0.866,2.117v4.889c0,0.832,0.288,1.539,0.866,2.115c0.578,0.578,1.283,0.867,2.116,0.867h0.069
		c0.809,0,1.514,0.289,2.115,0.867c0.577,0.602,0.867,1.305,0.867,2.113v1.77c0,0.832-0.29,1.537-0.867,2.115
		c-0.602,0.578-1.307,0.867-2.115,0.867H6.778c-0.81,0-1.515-0.289-2.115-0.867c-0.578-0.578-0.867-1.283-0.867-2.115v-1.77
		c0-0.809,0.289-1.512,0.867-2.113c0.601-0.578,1.306-0.867,2.115-0.867h0.069c0.81,0,1.515-0.289,2.115-0.867
		c0.578-0.576,0.867-1.283,0.867-2.115V14.679c0-0.808-0.289-1.504-0.867-2.082c-0.601-0.6-1.306-0.9-2.115-0.9H6.778
		c-0.81,0-1.515-0.289-2.115-0.867c-0.578-0.578-0.867-1.283-0.867-2.115v-1.77c0-0.809,0.289-1.514,0.867-2.115
		c0.601-0.578,1.306-0.866,2.115-0.866H25.54C27.528,3.963,29.782,4.057,32.303,4.239z M32.06,24.978
		c1.086-0.254,2.173-0.705,3.26-1.352c2.15-1.295,3.226-2.902,3.226-4.82c0-2.637-0.891-4.439-2.671-5.409
		c-1.456-0.833-3.745-1.249-6.866-1.249h-7.282c-0.833,0-1.538,0.289-2.116,0.867c-0.578,0.601-0.866,1.305-0.866,2.115v7.594
		c0,0.811,0.288,1.504,0.866,2.08c0.578,0.602,1.283,0.902,2.116,0.902h4.438C28.152,25.706,30.117,25.464,32.06,24.978z"/>
	<path d="M87.719,44.812c0.601,0,1.133,0.289,1.596,0.867c0.438,0.602,0.658,1.305,0.658,2.113v1.77
		c0,0.832-0.289,1.537-0.866,2.115c-0.602,0.578-1.307,0.867-2.116,0.867H75.547c-0.833,0-1.538-0.289-2.115-0.867
		c-0.579-0.578-0.867-1.283-0.867-2.115v-1.77c0-0.809,0.208-1.512,0.624-2.113c0.438-0.578,0.959-0.867,1.561-0.867
		c0.624,0,1.145-0.289,1.561-0.867c0.438-0.576,0.659-1.283,0.659-2.115v-8.74c0-1.986-0.116-3.962-0.347-5.927
		c-0.047-0.531-0.359-1.168-0.937-1.908c-0.948-1.201-2.382-1.803-4.301-1.803c-1.387,0-2.693,0.359-3.918,1.074
		c-1.249,0.74-2.128,1.711-2.636,2.914c-0.509,1.248-0.763,3.097-0.763,5.546v8.844c0,0.832,0.208,1.539,0.624,2.115
		c0.438,0.578,0.959,0.867,1.561,0.867c0.624,0,1.145,0.289,1.561,0.867c0.438,0.602,0.658,1.305,0.658,2.113v1.77
		c0,0.832-0.289,1.537-0.866,2.115c-0.578,0.578-1.283,0.867-2.116,0.867H54.046c-0.81,0-1.515-0.289-2.115-0.867
		c-0.578-0.578-0.867-1.283-0.867-2.115v-1.77c0-0.809,0.22-1.512,0.659-2.113c0.438-0.578,0.971-0.867,1.595-0.867
		s1.156-0.289,1.596-0.867c0.438-0.576,0.658-1.283,0.658-2.115V14.679c0-0.808-0.22-1.504-0.658-2.082
		c-0.439-0.6-0.972-0.9-1.596-0.9s-1.156-0.289-1.595-0.867c-0.439-0.578-0.659-1.283-0.659-2.115v-1.77
		c0-0.809,0.289-1.514,0.867-2.115c0.601-0.578,1.306-0.866,2.115-0.866h7.04c0.809,0,1.502,0.288,2.08,0.866
		c0.602,0.602,0.902,1.307,0.902,2.115v8.602c0,0.809,0.254,1.375,0.763,1.699c0.508,0.324,1.132,0.289,1.872-0.105
		c1.734-0.9,3.688-1.352,5.861-1.352c8.577,0,12.865,4.773,12.865,14.321V41.83c0,0.832,0.22,1.539,0.659,2.115
		C86.551,44.523,87.095,44.812,87.719,44.812z"/>
	<path d="M108.665,44.812c0.602,0,1.121,0.289,1.561,0.867c0.439,0.602,0.659,1.305,0.659,2.113v1.77
		c0,0.832-0.289,1.537-0.867,2.115s-1.283,0.867-2.115,0.867H96.458c-0.81,0-1.515-0.289-2.115-0.867
		c-0.578-0.578-0.867-1.283-0.867-2.115v-1.77c0-0.809,0.22-1.512,0.659-2.113c0.438-0.578,0.971-0.867,1.596-0.867
		c0.601,0,1.121-0.289,1.561-0.867c0.438-0.576,0.658-1.283,0.658-2.115V27.302c0-0.809-0.22-1.514-0.658-2.115
		c-0.439-0.578-0.972-0.867-1.596-0.867s-1.156-0.289-1.595-0.867c-0.439-0.602-0.659-1.307-0.659-2.115v-1.77
		c0-0.832,0.289-1.537,0.867-2.115c0.601-0.578,1.306-0.867,2.115-0.867h7.04c0.809,0,1.502,0.289,2.08,0.867
		c0.602,0.578,0.902,1.283,0.902,2.115V41.83c0,0.832,0.208,1.539,0.624,2.115C107.509,44.523,108.041,44.812,108.665,44.812z
		 M100.967,13.222c-0.833,0-1.538-0.289-2.115-0.867c-0.602-0.602-0.902-1.305-0.902-2.115V6.944c0-0.809,0.301-1.514,0.902-2.115
		c0.577-0.578,1.282-0.866,2.115-0.866h2.497c0.809,0,1.502,0.288,2.08,0.866c0.602,0.602,0.902,1.307,0.902,2.115v3.295
		c0,0.811-0.301,1.514-0.902,2.115c-0.578,0.578-1.271,0.867-2.08,0.867H100.967z"/>
	<path d="M129.507,44.812c0.624,0,1.156,0.289,1.596,0.867c0.438,0.602,0.658,1.305,0.658,2.113v1.77
		c0,0.832-0.289,1.537-0.866,2.115c-0.578,0.578-1.283,0.867-2.116,0.867h-11.443c-0.81,0-1.515-0.289-2.115-0.867
		c-0.578-0.578-0.867-1.283-0.867-2.115v-1.77c0-0.809,0.22-1.512,0.659-2.113c0.438-0.578,0.971-0.867,1.595-0.867
		c0.601,0,1.121-0.289,1.561-0.867c0.438-0.576,0.659-1.283,0.659-2.115V14.679c0-0.808-0.221-1.504-0.659-2.082
		c-0.439-0.6-0.96-0.9-1.561-0.9c-0.624,0-1.156-0.289-1.595-0.867c-0.439-0.578-0.659-1.283-0.659-2.115v-1.77
		c0-0.809,0.289-1.514,0.867-2.115c0.601-0.578,1.306-0.866,2.115-0.866h6.971c0.809,0,1.502,0.288,2.08,0.866
		c0.602,0.602,0.901,1.307,0.901,2.115V41.83c0,0.832,0.22,1.539,0.659,2.115C128.386,44.523,128.905,44.812,129.507,44.812z"/>
	<path d="M150.383,44.812c0.625,0,1.156,0.289,1.596,0.867c0.439,0.602,0.658,1.305,0.658,2.113v1.77
		c0,0.832-0.289,1.537-0.865,2.115c-0.578,0.578-1.283,0.867-2.116,0.867h-11.443c-0.81,0-1.515-0.289-2.115-0.867
		c-0.578-0.578-0.867-1.283-0.867-2.115v-1.77c0-0.809,0.22-1.512,0.659-2.113c0.438-0.578,0.971-0.867,1.595-0.867
		c0.601,0,1.121-0.289,1.561-0.867c0.438-0.576,0.659-1.283,0.659-2.115V14.679c0-0.808-0.221-1.504-0.659-2.082
		c-0.439-0.6-0.96-0.9-1.561-0.9c-0.624,0-1.156-0.289-1.595-0.867c-0.439-0.578-0.659-1.283-0.659-2.115v-1.77
		c0-0.809,0.289-1.514,0.867-2.115c0.601-0.578,1.306-0.866,2.115-0.866h6.971c0.809,0,1.502,0.288,2.08,0.866
		c0.602,0.602,0.901,1.307,0.901,2.115V41.83c0,0.832,0.22,1.539,0.659,2.115C149.263,44.523,149.782,44.812,150.383,44.812z"/>
	<path d="M171.33,44.812c0.6,0,1.121,0.289,1.561,0.867c0.438,0.602,0.658,1.305,0.658,2.113v1.77c0,0.832-0.289,1.537-0.867,2.115
		s-1.283,0.867-2.115,0.867h-11.443c-0.811,0-1.516-0.289-2.115-0.867c-0.578-0.578-0.867-1.283-0.867-2.115v-1.77
		c0-0.809,0.219-1.512,0.658-2.113c0.439-0.578,0.971-0.867,1.596-0.867c0.602,0,1.121-0.289,1.561-0.867
		c0.439-0.576,0.658-1.283,0.658-2.115V27.302c0-0.809-0.219-1.514-0.658-2.115c-0.439-0.578-0.971-0.867-1.596-0.867
		c-0.623,0-1.156-0.289-1.596-0.867c-0.439-0.602-0.658-1.307-0.658-2.115v-1.77c0-0.832,0.289-1.537,0.867-2.115
		c0.602-0.578,1.307-0.867,2.115-0.867h7.039c0.811,0,1.504,0.289,2.082,0.867c0.6,0.578,0.9,1.283,0.9,2.115V41.83
		c0,0.832,0.209,1.539,0.625,2.115C170.174,44.523,170.705,44.812,171.33,44.812z M163.631,13.222c-0.832,0-1.537-0.289-2.115-0.867
		c-0.602-0.602-0.902-1.305-0.902-2.115V6.944c0-0.809,0.301-1.514,0.902-2.115c0.578-0.578,1.283-0.866,2.115-0.866h2.496
		c0.811,0,1.504,0.288,2.082,0.866c0.6,0.602,0.9,1.307,0.9,2.115v3.295c0,0.811-0.301,1.514-0.9,2.115
		c-0.578,0.578-1.271,0.867-2.082,0.867H163.631z"/>
	<path d="M206.391,18.839c2.402,1.619,4.207,3.873,5.408,6.764c1.203,2.797,1.805,5.894,1.805,9.292
		c0,3.584-0.672,6.809-2.012,9.676c-1.203,2.795-3.053,5.039-5.549,6.727c-2.566,1.686-5.354,2.531-8.357,2.531
		c-2.797,0-5.237-0.752-7.317-2.254v3.502c0,0.809,0.219,1.502,0.658,2.08c0.439,0.602,0.971,0.902,1.597,0.902
		c0.602,0,1.121,0.287,1.561,0.865s0.658,1.285,0.658,2.117v1.768c0,0.83-0.289,1.535-0.865,2.113
		c-0.602,0.578-1.307,0.867-2.118,0.867h-11.443c-0.832,0-1.537-0.289-2.114-0.867c-0.578-0.578-0.867-1.283-0.867-2.113v-1.768
		c0-0.832,0.219-1.539,0.658-2.117s0.972-0.865,1.595-0.865c0.625,0,1.156-0.301,1.596-0.902c0.439-0.578,0.658-1.271,0.658-2.08
		v-27.22c0-0.809-0.242-1.514-0.729-2.115c-0.461-0.578-1.039-0.867-1.732-0.867c-0.672,0-1.249-0.289-1.733-0.867
		c-0.486-0.602-0.729-1.307-0.729-2.115v-1.77c0-0.832,0.289-1.537,0.867-2.115c0.602-0.576,1.306-0.867,2.114-0.867h4.994
		c0.832,0,1.641,0.268,2.428,0.799c0.809,0.555,1.363,1.213,1.664,1.977v0.035c2.451-2.404,5.446-3.607,8.983-3.607
		C201.164,16.343,203.939,17.175,206.391,18.839z M203.234,42.732c1.156-2.104,1.734-4.729,1.734-7.873
		c0-3.053-0.568-5.604-1.699-7.661c-1.297-2.404-3.191-3.607-5.688-3.607c-2.543,0-4.508,1.271-5.896,3.814
		c-1.203,2.219-1.805,4.853-1.805,7.905c0,3.908,0.752,6.764,2.254,8.566c1.435,1.688,3.157,2.531,5.169,2.531
		C199.939,46.408,201.916,45.184,203.234,42.732z"/>
	<path d="M271.725,26.47c2.82,1.455,4.844,3.685,6.068,6.69c0.625,1.619,0.938,3.25,0.938,4.891c0,2.15-0.521,4.289-1.561,6.416
		c-2.684,5.385-8.357,8.078-17.027,8.078h-21.189c-0.809,0-1.514-0.289-2.115-0.867c-0.578-0.578-0.867-1.283-0.867-2.115v-1.77
		c0-0.809,0.289-1.512,0.867-2.113c0.602-0.578,1.307-0.867,2.115-0.867h0.07c0.809,0,1.514-0.289,2.115-0.867
		c0.576-0.576,0.867-1.283,0.867-2.115V14.679c0-0.808-0.291-1.504-0.867-2.082c-0.602-0.6-1.307-0.9-2.115-0.9h-0.07
		c-0.809,0-1.514-0.289-2.115-0.867c-0.578-0.578-0.867-1.283-0.867-2.115v-1.77c0-0.809,0.289-1.514,0.867-2.115
		c0.602-0.578,1.307-0.866,2.115-0.866h17.93c1.988,0,3.965,0.174,5.93,0.521c6.01,1.062,9.883,2.994,11.617,5.791
		c1.318,2.127,1.977,4.346,1.977,6.658c0,1.041-0.139,2.08-0.416,3.121C275.297,22.688,273.875,24.827,271.725,26.47z
		 M250.918,20.192c0,0.832,0.289,1.537,0.867,2.115c0.576,0.578,1.283,0.867,2.115,0.867h1.768c1.988,0,3.977-0.035,5.965-0.104
		c0.902-0.023,1.688-0.139,2.359-0.348c1.732-0.508,2.877-1.617,3.432-3.328c0.186-0.625,0.277-1.238,0.277-1.84
		c0-1.039-0.301-2.057-0.9-3.051c-0.693-1.085-1.92-1.791-3.676-2.115c-0.855-0.162-2.602-0.242-5.236-0.242H253.9
		c-0.832,0-1.539,0.289-2.115,0.867c-0.578,0.601-0.867,1.305-0.867,2.115V20.192z M268.812,41.033
		c0.555-0.994,0.832-2.012,0.832-3.053c0-0.738-0.139-1.49-0.416-2.254c-0.672-1.85-1.885-3.064-3.643-3.643
		c-1.434-0.461-3.525-0.693-6.275-0.693h-5.41c-0.832,0-1.539,0.289-2.115,0.867c-0.578,0.578-0.867,1.283-0.867,2.115v6.973
		c0,0.832,0.289,1.537,0.867,2.115c0.576,0.578,1.283,0.867,2.115,0.867h3.26c1.988,0,3.975-0.047,5.965-0.139
		c0.693-0.023,1.422-0.162,2.184-0.416C266.904,43.334,268.072,42.42,268.812,41.033z"/>
	<path d="M318.264,17.106c0.809,0,1.502,0.289,2.08,0.867c0.602,0.578,0.902,1.283,0.902,2.115v1.768
		c0,0.811-0.256,1.516-0.764,2.115c-0.508,0.578-1.121,0.867-1.838,0.867s-1.434,0.277-2.15,0.832
		c-0.717,0.533-1.225,1.191-1.525,1.977l-8.322,22.261c-0.693,1.873-1.41,3.723-2.15,5.549c-1.227,3.051-2.162,5.076-2.809,6.07
		c-2.221,3.348-5.098,5.025-8.635,5.025c-1.227,0-2.613-0.279-4.162-0.834c-0.51-0.162-0.879-1.225-1.109-3.188l-0.277-2.287
		c-0.094-0.834-0.082-1.518,0.033-2.047c0.094-0.533,0.266-0.775,0.521-0.729c0.576,0.162,1.641,0.428,3.189,0.797h0.799
		c1.479,0,2.6-0.484,3.363-1.455c0.439-0.602,1.051-1.988,1.838-4.162c0.068-0.23,0.186-0.543,0.348-0.936l-9.121-24.065
		c-0.301-0.785-0.811-1.443-1.525-1.977c-0.717-0.555-1.436-0.832-2.15-0.832c-0.717,0-1.33-0.289-1.838-0.867
		c-0.51-0.6-0.764-1.305-0.764-2.115v-1.768c0-0.832,0.289-1.537,0.867-2.115c0.602-0.578,1.307-0.867,2.115-0.867h11.443
		c0.832,0,1.537,0.289,2.115,0.867s0.867,1.283,0.867,2.115v1.768c0,0.811-0.162,1.516-0.484,2.115
		c-0.324,0.578-0.705,0.867-1.145,0.867c-0.463,0-0.764,0.277-0.902,0.832c-0.115,0.555-0.047,1.215,0.209,1.977l3.605,10.438
		c0.277,0.785,0.602,1.178,0.971,1.178c0.395,0,0.729-0.393,1.006-1.178l3.643-10.438c0.277-0.762,0.334-1.422,0.172-1.977
		c-0.184-0.555-0.52-0.832-1.004-0.832c-0.51,0-0.949-0.289-1.318-0.867c-0.348-0.6-0.52-1.305-0.52-2.115v-1.768
		c0-0.832,0.287-1.537,0.865-2.115s1.283-0.867,2.115-0.867H318.264z"/>
	<path d="M349.371,17.8c0.277,0.139,0.428,0.531,0.451,1.178c0,0.672-0.139,1.389-0.416,2.15l-0.902,2.428
		c-0.693,1.85-1.248,2.648-1.664,2.393c-0.395-0.23-1.389-0.705-2.982-1.422h-1.076c-0.393,0-0.785,0.047-1.178,0.139
		c-1.504,0.324-2.521,1.307-3.053,2.949c-0.555,1.85-0.832,3.905-0.832,6.169v8.047c0,0.832,0.207,1.539,0.623,2.115
		c0.439,0.578,0.961,0.867,1.561,0.867c0.625,0,1.145,0.289,1.561,0.867c0.439,0.602,0.66,1.305,0.66,2.113v1.77
		c0,0.832-0.289,1.537-0.867,2.115s-1.283,0.867-2.115,0.867h-11.443c-0.811,0-1.516-0.289-2.117-0.867
		c-0.578-0.578-0.865-1.283-0.865-2.115v-1.77c0-0.809,0.219-1.512,0.658-2.113c0.439-0.578,0.971-0.867,1.596-0.867
		c0.623,0,1.154-0.289,1.594-0.867c0.439-0.576,0.66-1.283,0.66-2.115V27.302c0-0.809-0.221-1.514-0.66-2.115
		c-0.439-0.578-0.971-0.867-1.594-0.867c-0.625,0-1.156-0.289-1.596-0.867c-0.439-0.602-0.658-1.307-0.658-2.115v-1.77
		c0-0.832,0.287-1.537,0.865-2.115c0.602-0.578,1.307-0.867,2.117-0.867h6.449c1.988,0,2.982,0.324,2.982,0.971
		c0,0.256,0.23,0.312,0.693,0.174c0.463-0.16,1.029-0.496,1.699-1.006c0.832-0.623,1.953-0.936,3.363-0.936
		C345.012,15.788,347.174,16.458,349.371,17.8z"/>
	<path d="M387.135,44.777c0.625,0,1.156,0.291,1.596,0.867c0.463,0.602,0.693,1.305,0.693,2.113v1.77c0,0.832-0.301,1.537-0.9,2.115
		c-0.578,0.578-1.271,0.867-2.082,0.867h-4.334c-1.988,0-3.203-0.451-3.641-1.352c-0.186-0.371-0.59-0.533-1.215-0.486
		c-0.602,0.047-1.248,0.301-1.941,0.764c-1.803,1.201-3.908,1.803-6.312,1.803c-4.947,0-8.877-2-11.791-6
		c-2.611-3.512-3.918-7.742-3.918-12.691c0-5.038,1.248-9.304,3.746-12.794c2.844-4,6.75-6,11.721-6
		c2.982,0,5.549,0.832,7.699,2.498v-3.607c0-0.808-0.221-1.502-0.66-2.08c-0.439-0.602-0.971-0.902-1.594-0.902
		c-0.625,0-1.156-0.289-1.596-0.867s-0.658-1.283-0.658-2.115V6.911c0-0.811,0.287-1.516,0.865-2.117
		c0.578-0.575,1.283-0.864,2.117-0.864h6.936c0.832,0,1.537,0.289,2.115,0.864c0.576,0.602,0.867,1.307,0.867,2.117v34.886
		c0,0.809,0.23,1.514,0.693,2.115C385.979,44.49,386.512,44.777,387.135,44.777z M374.721,43.287
		c1.479-1.756,2.219-4.52,2.219-8.289c0-4.184-0.773-7.212-2.322-9.083c-1.48-1.805-3.26-2.705-5.342-2.705
		c-2.566,0-4.484,1.189-5.756,3.57c-1.088,2.035-1.631,4.624-1.631,7.767c0,3.029,0.59,5.596,1.77,7.699
		c1.363,2.383,3.316,3.572,5.861,3.572C371.529,45.818,373.264,44.975,374.721,43.287z"/>
</g>
<g>
	<path d="M36.164,89.862c-0.525,0.318-1.063,0.537-1.615,0.652c-0.872,0.178-2.14,0.396-3.804,0.654
		c-1.094,0.178-1.752,0.268-1.975,0.268c-1.121,0-2.237-0.227-3.35-0.682c-1.415-0.568-2.122-1.32-2.122-2.254
		c0-1.059,0.761-2.002,2.282-2.83c2.215-1.201,3.604-1.801,4.164-1.801l1.694,0.172h-0.014c-0.115,0-0.182,0.107-0.2,0.32
		c-0.035,0.295-0.062,0.451-0.08,0.469c-0.872,0.275-1.992,0.764-3.362,1.467c-1.735,0.891-2.603,1.566-2.603,2.029
		c0,0.863,1.085,1.418,3.256,1.668c0.383,0.035,0.632,0.053,0.748,0.053c0.009,0,0.021,0,0.04,0l6.699-1.014l0.24,0.199V89.862z"/>
	<path d="M52.244,86.885c0,0.951-0.2,1.766-0.601,2.441c-0.365,0.615-1.659,1.219-3.884,1.814c-1.983,0.535-3.491,0.801-4.523,0.801
		c-1.21,0-2.407-0.289-3.59-0.867c-1.433-0.711-2.148-1.596-2.148-2.654c0-0.473,0.271-0.953,0.813-1.441
		c0.48-0.348,1.206-1.002,2.176-1.963c0.641-0.783,1.814-1.414,3.522-1.895c1.441-0.408,2.79-0.613,4.044-0.613
		c0.338,0,0.845,0.146,1.521,0.439c0.676,0.312,1.139,0.596,1.388,0.854c0.249,0.277,0.525,0.773,0.827,1.488
		C52.093,86.006,52.244,86.538,52.244,86.885z M50.883,86.778c0-0.658-0.396-1.285-1.188-1.881c-0.729-0.561-1.45-0.842-2.162-0.842
		c-0.134,0-1.17,0.191-3.109,0.574c-0.747,0.152-1.428,0.441-2.042,0.867c-2.1,1.494-3.149,2.527-3.149,3.096
		c0,0.48,0.574,0.918,1.722,1.309c0.979,0.338,1.775,0.508,2.389,0.508c0.916,0,2.202-0.188,3.856-0.561
		c1.513-0.338,2.59-0.85,3.229-1.535C50.731,88.002,50.883,87.491,50.883,86.778z"/>
	<path d="M74.224,86.885c0,0.258-0.031,1.098-0.094,2.521c-0.062,1.434-0.094,2.273-0.094,2.523
		c-0.258,0.018-0.512,0.137-0.761,0.359c-0.649-0.525-0.974-1.334-0.974-2.428c0-0.117,0.026-0.529,0.08-1.242
		c0.062-0.711,0.094-1.129,0.094-1.254c0-0.533-0.085-0.957-0.254-1.268h-0.467c-0.392,0-1.896,0.805-4.511,2.414l-3.896,2.416
		c-0.392,0-0.921-0.248-1.589-0.748c-0.018-0.078-0.026-0.168-0.026-0.266c0-0.107,0.04-0.48,0.12-1.121s0.12-1.02,0.12-1.135
		c0-0.561-0.125-1.018-0.374-1.375h-0.453c-0.4,0-2.349,1.598-5.846,4.791h-0.773c-0.231-0.346-0.348-0.6-0.348-0.76
		c0-0.25,0.579-0.742,1.735-1.482c0.169-0.105,1.183-1.004,3.043-2.695c1.405-1.271,2.495-1.908,3.27-1.908
		c0.836,0,1.254,0.965,1.254,2.896c0,0.16-0.009,0.422-0.026,0.787c-0.036,0.365-0.054,0.631-0.054,0.801
		c0.329,0.07,0.503,0.115,0.521,0.133c-0.009,0.01-0.031,0.014-0.066,0.014c0.178,0,1.708-0.867,4.591-2.602
		c0.213-0.195,0.564-0.449,1.054-0.762c1.682-0.729,2.834-1.094,3.457-1.094C73.801,84.403,74.224,85.231,74.224,86.885z"/>
	<path d="M80.148,88.073c0,0.115-0.169,0.529-0.507,1.24c-0.4,0.811-0.623,1.291-0.668,1.441c-1.432,4.787-2.246,9.199-2.441,13.238
		c-0.517,0.115-0.774,0.184-0.774,0.201h0.014c-0.205,0-0.412-0.107-0.621-0.32c-0.209-0.215-0.313-0.424-0.313-0.627
		c0-2.475,0.872-6.65,2.616-12.531c0.24-0.811,0.582-1.615,1.027-2.416c0.151-0.275,0.564-0.578,1.241-0.908
		C80.006,87.588,80.148,87.815,80.148,88.073z M88.902,85.75c0,0.908-0.867,1.961-2.602,3.162c-1.22,0.855-2.491,1.566-3.817,2.137
		c-0.942,0.418-1.583,0.627-1.921,0.627h-0.548l-0.373-0.414c0.187-0.471,0.427-0.822,0.721-1.055
		c0.355-0.143,0.841-0.338,1.454-0.586c3.567-1.379,5.352-2.729,5.352-4.045c0-0.854-1.236-1.281-3.71-1.281
		c-1.219,0-2.425,0.098-3.616,0.295c-1.699,0.283-2.745,0.707-3.137,1.268c-0.115,0.471-0.312,1.121-0.587,1.947
		c-0.525-0.809-0.787-1.467-0.787-1.975c0-0.551,0.146-1,0.44-1.348c0.347-0.418,1.525-0.85,3.536-1.295
		c1.806-0.4,3.114-0.6,3.924-0.6C87.012,82.588,88.902,83.643,88.902,85.75z"/>
	<path d="M103.262,84.229c0,0.373-0.676,1.309-2.028,2.803c-1.192,1.316-2.077,2.189-2.655,2.615
		c-0.294,0.215-0.921,0.676-1.882,1.389c-0.4,0.285-1.014,0.564-1.842,0.84c-0.845,0.275-1.508,0.414-1.988,0.414
		c-0.907,0-1.659-0.582-2.255-1.748c-0.489-0.951-0.734-1.943-0.734-2.977c0-0.854,0.178-1.73,0.534-2.629
		c0.133,0,0.271-0.062,0.413-0.186c0.169,0.098,0.4,0.283,0.694,0.561c-0.089,0.701-0.134,1.316-0.134,1.84
		c0,2.154,0.698,3.23,2.096,3.23c1.352,0,2.976-0.84,4.871-2.521c0.302-0.268,1.726-1.598,4.271-3.99h0.213
		C103.12,83.87,103.262,83.989,103.262,84.229z"/>
	<path d="M117.475,82.735c-2.037,0-3.79,0.338-5.258,1.014c-0.355,0.16-0.574,0.387-0.653,0.682
		c-0.019,0.418-0.09,1.178-0.214,2.281c-0.045,0.41-0.066,0.832-0.066,1.268c0,0.09,0.02,0.385,0.06,0.887
		c0.04,0.504,0.061,0.795,0.061,0.875c0,0.703-0.174,1.285-0.521,1.748c-0.071-0.018-0.268-0.094-0.588-0.227
		c-0.347-0.898-0.521-1.943-0.521-3.137c0-0.293,0.049-0.881,0.147-1.762c0.089-0.861,0.133-1.445,0.133-1.748
		c0-0.266-0.093-0.467-0.28-0.6c-0.16,0.062-0.729,0.143-1.708,0.24c-0.169,0.035-0.676,0.115-1.521,0.24
		c-0.151,0.018-0.427,0.049-0.827,0.094c-0.089,0.008-0.307,0.15-0.653,0.426c-0.09,0.08-0.134,0.254-0.134,0.521
		c0,0.025,0,0.057,0,0.094h-0.587c-0.134,0-0.412-0.186-0.834-0.555c-0.423-0.369-0.635-0.607-0.635-0.715
		c0-0.551,0.979-0.959,2.937-1.227c2.393-0.33,3.821-0.619,4.283-0.867c0.268-0.16,0.561-1.918,0.881-5.272
		c0.16-1.654,0.489-3.777,0.987-6.365c0.045-0.223,0.116-0.566,0.214-1.027c0.035-0.098,0.347-0.289,0.935-0.574l0.227,1.641
		c-0.045,0.223-0.129,0.689-0.254,1.402l-0.561,3.43c-0.062,0.283-0.133,0.832-0.213,1.641l-0.228,4.764l5.392-0.053V82.735z"/>
	<path d="M130.979,91.049c-0.329,0.391-0.756,0.586-1.281,0.586h-4.724c-1.095,0-2.313-0.164-3.657-0.494
		c-1.761-0.426-2.758-0.965-2.989-1.613c-0.258-0.73-0.387-1.428-0.387-2.096c0-1.344,0.578-2.375,1.735-3.096
		c0.979-0.623,2.17-0.934,3.576-0.934c1.21,0,2.171,0.26,2.883,0.779c0.711,0.521,1.067,1.23,1.067,2.129
		c0,0.498-0.854,1.045-2.562,1.641c-1.414,0.508-2.442,0.762-3.083,0.762c-0.08,0-0.151-0.004-0.213-0.014
		c0,0.125-0.099,0.275-0.294,0.453c0.107,0.18,0.627,0.383,1.562,0.615c0.836,0.213,1.433,0.32,1.788,0.32h4.244
		c0,0.008,0.533,0.088,1.602,0.24C130.584,90.542,130.828,90.782,130.979,91.049z M125.481,85.723
		c-0.498-0.506-1.299-0.76-2.402-0.76c-0.773,0-1.49,0.15-2.148,0.453c-0.854,0.393-1.281,0.922-1.281,1.588
		c0,0.24,0.08,0.41,0.24,0.508h0.854c0.302,0,1.121-0.254,2.455-0.76C124.534,86.245,125.295,85.903,125.481,85.723z"/>
	<path d="M143.831,84.842l-0.428,0.389c-0.934-0.295-1.659-0.441-2.175-0.441c-0.035,0-0.071,0-0.106,0
		c-0.668,0.035-1.157,0.053-1.468,0.053h-1.068c-0.018,0-0.329,0.1-0.934,0.295c-0.383,0.025-0.947,0.125-1.695,0.293
		c-1.192,0.525-1.903,1.451-2.135,2.775c-0.099,0.525-0.146,0.988-0.146,1.389c0,0.107,0.004,0.213,0.013,0.32
		c0.071,0.986,0.106,1.57,0.106,1.748c-0.204,0.053-0.533,0.107-0.987,0.16c-0.249-0.48-0.373-0.814-0.373-1.002
		c0-0.098,0.021-0.35,0.066-0.76c0.026-0.408,0.04-0.686,0.04-0.828c0-0.746,0.329-2.031,0.987-3.855
		c0.223-0.463,0.543-0.842,0.961-1.135c0.907-0.623,2.584-0.934,5.031-0.934c2.455,0.008,3.892,0.334,4.311,0.973V84.842z"/>
	<path d="M165.996,88.54c0,0.756-0.244,1.26-0.732,1.508c-0.365,0.17-1.256,0.473-2.67,0.908c-1.469,0.453-2.367,0.68-2.695,0.68
		c-0.053,0-0.125-0.027-0.213-0.086c-0.09-0.059-0.156-0.088-0.201-0.088c-0.195,0-0.574,0.285-1.135,0.855
		c-0.393-0.295-0.588-0.521-0.588-0.682c0-0.996,1.5-1.797,4.498-2.402c0.188-0.043,0.535-0.111,1.041-0.199
		c0.143-0.098,0.361-0.293,0.654-0.588c-0.285-0.471-0.725-0.822-1.32-1.055c-0.598-0.203-1.674-0.607-3.23-1.213
		c-1.549-0.596-2.322-1.268-2.322-2.016c0-0.969,0.969-1.455,2.91-1.455c0.738,0,1.686,0.086,2.842,0.254
		c1.352,0.195,2.232,0.418,2.643,0.668l-0.213,0.346l-4.951,0.254c-0.027,0.035-0.135,0.125-0.32,0.268l3.562,1.588
		C165.184,86.805,165.996,87.624,165.996,88.54z"/>
	<path d="M180.089,89.862c-0.525,0.318-1.062,0.537-1.614,0.652c-0.871,0.178-2.139,0.396-3.803,0.654
		c-1.094,0.178-1.754,0.268-1.975,0.268c-1.121,0-2.238-0.227-3.35-0.682c-1.416-0.568-2.123-1.32-2.123-2.254
		c0-1.059,0.762-2.002,2.283-2.83c2.215-1.201,3.602-1.801,4.162-1.801l1.695,0.172h-0.014c-0.115,0-0.182,0.107-0.199,0.32
		c-0.035,0.295-0.062,0.451-0.08,0.469c-0.873,0.275-1.994,0.764-3.363,1.467c-1.734,0.891-2.602,1.566-2.602,2.029
		c0,0.863,1.084,1.418,3.256,1.668c0.383,0.035,0.631,0.053,0.746,0.053c0.01,0,0.023,0,0.041,0l6.698-1.014l0.24,0.199V89.862z"/>
	<path d="M184.212,89.006c-0.107,1.441-0.16,2.277-0.16,2.51c-0.428,0.24-0.809,0.359-1.148,0.359
		c-0.141-0.408-0.213-0.916-0.213-1.521c0-3.363,0.418-5.146,1.254-5.352c0.295,0.135,0.455,0.361,0.48,0.682
		c-0.008-0.115-0.021-0.178-0.039-0.188c0.008,0.098,0.014,0.219,0.014,0.361C184.399,86.489,184.337,87.54,184.212,89.006z
		 M185.466,78.811l0.014,0.053c0,0.348-0.365,0.77-1.094,1.27c-0.213-0.062-0.65-0.428-1.309-1.096
		c0.268-0.641,0.557-0.961,0.867-0.961C184.239,78.076,184.745,78.322,185.466,78.811z"/>
	<path d="M200.066,91.049c-0.33,0.391-0.758,0.586-1.281,0.586h-4.723c-1.096,0-2.315-0.164-3.659-0.494
		c-1.762-0.426-2.758-0.965-2.988-1.613c-0.258-0.73-0.387-1.428-0.387-2.096c0-1.344,0.578-2.375,1.734-3.096
		c0.979-0.623,2.17-0.934,3.576-0.934c1.212,0,2.171,0.26,2.884,0.779c0.711,0.521,1.068,1.23,1.068,2.129
		c0,0.498-0.855,1.045-2.562,1.641c-1.417,0.508-2.444,0.762-3.085,0.762c-0.08,0-0.15-0.004-0.213-0.014
		c0,0.125-0.098,0.275-0.293,0.453c0.105,0.18,0.627,0.383,1.561,0.615c0.836,0.213,1.433,0.32,1.79,0.32h4.242
		c0,0.008,0.535,0.088,1.602,0.24C199.67,90.542,199.914,90.782,200.066,91.049z M194.568,85.723
		c-0.498-0.506-1.299-0.76-2.403-0.76c-0.773,0-1.49,0.15-2.148,0.453c-0.854,0.393-1.281,0.922-1.281,1.588
		c0,0.24,0.08,0.41,0.24,0.508h0.855c0.301,0,1.121-0.254,2.455-0.76C193.621,86.245,194.383,85.903,194.568,85.723z"/>
	<path d="M212.984,84.549c0,0.188-0.094,1.25-0.281,3.189c-0.16,1.611-0.355,3.363-0.586,5.258c-0.018,0.143-0.16,0.215-0.428,0.215
		c-0.346,0-0.631-0.438-0.854-1.309c-0.17-0.668-0.254-1.26-0.254-1.775c0-0.195,0.113-0.898,0.34-2.107
		c0.227-1.211,0.342-1.908,0.342-2.096c0-0.525-0.143-0.787-0.428-0.787c-0.365,0-1.143,0.316-2.336,0.947
		c-1.031,0.551-1.783,1-2.256,1.348c-0.898,0.658-1.916,1.65-3.055,2.977c-0.188,0.213-0.553,0.623-1.096,1.227
		c-0.213,0.223-0.635,0.338-1.268,0.348v-0.895c0-0.418,0.818-1.338,2.457-2.762c1.307-1.139,2.678-2.172,4.109-3.096
		c2.01-1.309,3.506-1.963,4.484-1.963c0.258,0,0.506,0.143,0.746,0.428S212.984,84.264,212.984,84.549z"/>
	<path d="M227.756,89.862c-0.523,0.318-1.062,0.537-1.613,0.652c-0.873,0.178-2.141,0.396-3.805,0.654
		c-1.094,0.178-1.752,0.268-1.975,0.268c-1.121,0-2.238-0.227-3.35-0.682c-1.414-0.568-2.121-1.32-2.121-2.254
		c0-1.059,0.76-2.002,2.281-2.83c2.215-1.201,3.604-1.801,4.164-1.801l1.695,0.172h-0.014c-0.115,0-0.184,0.107-0.201,0.32
		c-0.035,0.295-0.062,0.451-0.08,0.469c-0.871,0.275-1.992,0.764-3.363,1.467c-1.734,0.891-2.602,1.566-2.602,2.029
		c0,0.863,1.086,1.418,3.256,1.668c0.383,0.035,0.633,0.053,0.748,0.053c0.008,0,0.021,0,0.039,0l6.699-1.014l0.24,0.199V89.862z"/>
	<path d="M241.955,91.049c-0.328,0.391-0.756,0.586-1.281,0.586h-4.723c-1.096,0-2.314-0.164-3.658-0.494
		c-1.762-0.426-2.758-0.965-2.988-1.613c-0.258-0.73-0.387-1.428-0.387-2.096c0-1.344,0.578-2.375,1.734-3.096
		c0.979-0.623,2.17-0.934,3.576-0.934c1.211,0,2.17,0.26,2.883,0.779c0.711,0.521,1.068,1.23,1.068,2.129
		c0,0.498-0.855,1.045-2.562,1.641c-1.416,0.508-2.443,0.762-3.084,0.762c-0.08,0-0.15-0.004-0.213-0.014
		c0,0.125-0.098,0.275-0.293,0.453c0.105,0.18,0.627,0.383,1.561,0.615c0.836,0.213,1.432,0.32,1.789,0.32h4.242
		c0,0.008,0.535,0.088,1.602,0.24C241.559,90.542,241.805,90.782,241.955,91.049z M236.457,85.723
		c-0.498-0.506-1.299-0.76-2.402-0.76c-0.773,0-1.49,0.15-2.148,0.453c-0.854,0.393-1.281,0.922-1.281,1.588
		c0,0.24,0.08,0.41,0.24,0.508h0.855c0.301,0,1.121-0.254,2.455-0.76C235.51,86.245,236.271,85.903,236.457,85.723z"/>
	<path d="M259.252,88.073c0,0.115-0.17,0.529-0.508,1.24c-0.4,0.811-0.623,1.291-0.668,1.441c-1.432,4.787-2.246,9.199-2.441,13.238
		c-0.516,0.115-0.773,0.184-0.773,0.201h0.014c-0.205,0-0.412-0.107-0.621-0.32c-0.209-0.215-0.314-0.424-0.314-0.627
		c0-2.475,0.873-6.65,2.615-12.531c0.24-0.811,0.584-1.615,1.029-2.416c0.15-0.275,0.564-0.578,1.24-0.908
		C259.109,87.588,259.252,87.815,259.252,88.073z M268.006,85.75c0,0.908-0.867,1.961-2.604,3.162
		c-1.219,0.855-2.49,1.566-3.816,2.137c-0.943,0.418-1.582,0.627-1.922,0.627h-0.547l-0.373-0.414
		c0.188-0.471,0.428-0.822,0.721-1.055c0.355-0.143,0.84-0.338,1.455-0.586c3.566-1.379,5.352-2.729,5.352-4.045
		c0-0.854-1.238-1.281-3.711-1.281c-1.219,0-2.424,0.098-3.617,0.295c-1.699,0.283-2.744,0.707-3.135,1.268
		c-0.115,0.471-0.312,1.121-0.588,1.947c-0.525-0.809-0.787-1.467-0.787-1.975c0-0.551,0.146-1,0.441-1.348
		c0.346-0.418,1.525-0.85,3.535-1.295c1.807-0.4,3.113-0.6,3.924-0.6C266.115,82.588,268.006,83.643,268.006,85.75z"/>
	<path d="M283.859,86.885c0,0.951-0.199,1.766-0.6,2.441c-0.365,0.615-1.66,1.219-3.885,1.814c-1.982,0.535-3.492,0.801-4.523,0.801
		c-1.209,0-2.406-0.289-3.59-0.867c-1.432-0.711-2.148-1.596-2.148-2.654c0-0.473,0.271-0.953,0.814-1.441
		c0.48-0.348,1.205-1.002,2.176-1.963c0.641-0.783,1.814-1.414,3.521-1.895c1.441-0.408,2.789-0.613,4.045-0.613
		c0.338,0,0.844,0.146,1.521,0.439c0.676,0.312,1.139,0.596,1.387,0.854c0.25,0.277,0.525,0.773,0.828,1.488
		C283.709,86.006,283.859,86.538,283.859,86.885z M282.498,86.778c0-0.658-0.396-1.285-1.188-1.881
		c-0.729-0.561-1.449-0.842-2.162-0.842c-0.133,0-1.17,0.191-3.109,0.574c-0.746,0.152-1.428,0.441-2.041,0.867
		c-2.1,1.494-3.15,2.527-3.15,3.096c0,0.48,0.574,0.918,1.723,1.309c0.979,0.338,1.773,0.508,2.389,0.508
		c0.916,0,2.201-0.188,3.855-0.561c1.514-0.338,2.59-0.85,3.23-1.535C282.348,88.002,282.498,87.491,282.498,86.778z"/>
	<path d="M297.365,84.842l-0.428,0.389c-0.934-0.295-1.658-0.441-2.176-0.441c-0.035,0-0.07,0-0.105,0
		c-0.668,0.035-1.156,0.053-1.469,0.053h-1.066c-0.02,0-0.33,0.1-0.936,0.295c-0.383,0.025-0.947,0.125-1.693,0.293
		c-1.193,0.525-1.904,1.451-2.137,2.775c-0.098,0.525-0.146,0.988-0.146,1.389c0,0.107,0.004,0.213,0.014,0.32
		c0.07,0.986,0.107,1.57,0.107,1.748c-0.205,0.053-0.535,0.107-0.988,0.16c-0.25-0.48-0.373-0.814-0.373-1.002
		c0-0.098,0.021-0.35,0.066-0.76c0.027-0.408,0.039-0.686,0.039-0.828c0-0.746,0.33-2.031,0.988-3.855
		c0.223-0.463,0.543-0.842,0.961-1.135c0.908-0.623,2.584-0.934,5.031-0.934c2.455,0.008,3.893,0.334,4.311,0.973V84.842z"/>
	<path d="M312.898,82.735c-2.037,0-3.789,0.338-5.258,1.014c-0.355,0.16-0.574,0.387-0.654,0.682
		c-0.018,0.418-0.088,1.178-0.213,2.281c-0.045,0.41-0.066,0.832-0.066,1.268c0,0.09,0.02,0.385,0.059,0.887
		c0.041,0.504,0.061,0.795,0.061,0.875c0,0.703-0.174,1.285-0.52,1.748c-0.072-0.018-0.268-0.094-0.588-0.227
		c-0.348-0.898-0.52-1.943-0.52-3.137c0-0.293,0.049-0.881,0.146-1.762c0.088-0.861,0.133-1.445,0.133-1.748
		c0-0.266-0.094-0.467-0.279-0.6c-0.16,0.062-0.73,0.143-1.709,0.24c-0.17,0.035-0.676,0.115-1.521,0.24
		c-0.15,0.018-0.428,0.049-0.828,0.094c-0.088,0.008-0.307,0.15-0.652,0.426c-0.09,0.08-0.135,0.254-0.135,0.521
		c0,0.025,0,0.057,0,0.094h-0.586c-0.135,0-0.412-0.186-0.834-0.555c-0.424-0.369-0.635-0.607-0.635-0.715
		c0-0.551,0.979-0.959,2.936-1.227c2.395-0.33,3.822-0.619,4.285-0.867c0.266-0.16,0.561-1.918,0.879-5.272
		c0.16-1.654,0.49-3.777,0.988-6.365c0.045-0.223,0.115-0.566,0.213-1.027c0.037-0.098,0.348-0.289,0.936-0.574l0.227,1.641
		c-0.045,0.223-0.129,0.689-0.254,1.402l-0.561,3.43c-0.062,0.283-0.133,0.832-0.213,1.641l-0.227,4.764l5.391-0.053V82.735z"/>
	<path d="M336.812,73.299v-0.014c-0.02,0-0.09,0.236-0.215,0.709c-1.557-2.172-3.793-3.258-6.711-3.258
		c-0.98,0-2.025,0.236-3.137,0.707c-1.193,0.49-2.055,1.1-2.59,1.83c-0.604,0.826-1.205,2.076-1.801,3.75
		c-0.641,1.752-0.961,3.083-0.961,3.989c0,0.285,0.059,0.873,0.174,1.762c0.115,0.971,0.182,1.545,0.199,1.723
		c0.393,0.311,0.689,0.467,0.895,0.467c0.09,0,0.303-0.045,0.641-0.133c0.348-0.09,0.529-0.135,0.547-0.135
		c0.686-0.07,2.189-0.105,4.512-0.105c1.521,0,2.967,0.043,4.336,0.133c-0.08,0-0.271,0.119-0.574,0.359l0.041,0.375l-4.951,0.293
		c-2.01,0.115-3.559,0.525-4.645,1.229c0.268,0.943,0.842,2.184,1.723,3.723v0.734c-0.09,0.16-0.26,0.24-0.508,0.24
		c-0.24,0-0.854-0.805-1.842-2.416c-1.006-1.602-1.619-2.402-1.842-2.402c-0.516,0-1.254,0.098-2.215,0.293
		c-0.293,0.072-0.881,0.268-1.762,0.588c-0.871,0.33-1.379,0.494-1.521,0.494c-0.488,0-1.027-0.303-1.615-0.908
		c0-0.018,0-0.035,0-0.053c0-0.4,0.188-0.686,0.561-0.854c1.033-0.48,3.088-0.863,6.166-1.148c0.178-0.125,0.311-0.258,0.4-0.4
		c-0.125-1.049-0.188-2.076-0.188-3.082c0-3.471,0.762-6.348,2.283-8.635c1.734-2.633,4.256-3.949,7.566-3.949
		c1.504,0,2.963,0.32,4.377,0.961C335.926,70.973,336.812,72.018,336.812,73.299z"/>
	<path d="M348.676,86.885c0,0.951-0.199,1.766-0.6,2.441c-0.365,0.615-1.66,1.219-3.885,1.814c-1.982,0.535-3.492,0.801-4.523,0.801
		c-1.209,0-2.406-0.289-3.59-0.867c-1.432-0.711-2.148-1.596-2.148-2.654c0-0.473,0.271-0.953,0.814-1.441
		c0.48-0.348,1.205-1.002,2.176-1.963c0.641-0.783,1.814-1.414,3.521-1.895c1.441-0.408,2.789-0.613,4.045-0.613
		c0.338,0,0.844,0.146,1.521,0.439c0.676,0.312,1.139,0.596,1.387,0.854c0.25,0.277,0.525,0.773,0.828,1.488
		C348.525,86.006,348.676,86.538,348.676,86.885z M347.314,86.778c0-0.658-0.396-1.285-1.188-1.881
		c-0.729-0.561-1.449-0.842-2.162-0.842c-0.133,0-1.17,0.191-3.109,0.574c-0.746,0.152-1.428,0.441-2.041,0.867
		c-2.1,1.494-3.15,2.527-3.15,3.096c0,0.48,0.574,0.918,1.723,1.309c0.979,0.338,1.773,0.508,2.389,0.508
		c0.916,0,2.201-0.188,3.855-0.561c1.514-0.338,2.59-0.85,3.23-1.535C347.164,88.002,347.314,87.491,347.314,86.778z"/>
	<path d="M354.068,68.936l-0.762,16.868c-0.045,0.037-0.066,0.143-0.066,0.32c0,0.18,0.021,0.424,0.066,0.734
		c0.098,0.836,0.33,2.42,0.693,4.752c-0.018,0.08-0.168,0.168-0.453,0.266c-0.053,0.01-0.102,0.014-0.146,0.014
		c-0.934,0-1.539-1.076-1.814-3.229c-0.01-0.045-0.014-0.135-0.014-0.268c0-0.418,0.021-1.277,0.066-2.576
		c0.062-1.672,0.139-3.42,0.227-5.244c0.027-0.693,0.129-1.985,0.307-3.87c0.17-1.727,0.254-3.008,0.254-3.844
		c0-2.555,0.17-4.338,0.508-5.352l0.199-0.014c0.027,0,0.049,0,0.066,0c0.303,0,0.508,0.17,0.615,0.508
		C353.895,68.225,353.979,68.535,354.068,68.936z"/>
	<path d="M359.285,89.006c-0.107,1.441-0.16,2.277-0.16,2.51c-0.428,0.24-0.809,0.359-1.148,0.359
		c-0.141-0.408-0.213-0.916-0.213-1.521c0-3.363,0.418-5.146,1.254-5.352c0.295,0.135,0.455,0.361,0.48,0.682
		c-0.008-0.115-0.021-0.178-0.039-0.188c0.008,0.098,0.014,0.219,0.014,0.361C359.473,86.489,359.41,87.54,359.285,89.006z
		 M360.539,78.811l0.014,0.053c0,0.348-0.365,0.77-1.094,1.27c-0.213-0.062-0.65-0.428-1.309-1.096
		c0.268-0.641,0.557-0.961,0.867-0.961C359.312,78.076,359.818,78.322,360.539,78.811z"/>
	<path d="M377.021,86.885c0,0.951-0.201,1.766-0.602,2.441c-0.365,0.615-1.658,1.219-3.883,1.814
		c-1.984,0.535-3.492,0.801-4.523,0.801c-1.211,0-2.408-0.289-3.59-0.867c-1.434-0.711-2.148-1.596-2.148-2.654
		c0-0.473,0.27-0.953,0.812-1.441c0.48-0.348,1.207-1.002,2.176-1.963c0.641-0.783,1.814-1.414,3.523-1.895
		c1.441-0.408,2.789-0.613,4.043-0.613c0.338,0,0.846,0.146,1.521,0.439c0.676,0.312,1.139,0.596,1.389,0.854
		c0.248,0.277,0.523,0.773,0.826,1.488C376.869,86.006,377.021,86.538,377.021,86.885z M375.66,86.778
		c0-0.658-0.396-1.285-1.188-1.881c-0.73-0.561-1.451-0.842-2.162-0.842c-0.135,0-1.17,0.191-3.109,0.574
		c-0.748,0.152-1.428,0.441-2.043,0.867c-2.1,1.494-3.148,2.527-3.148,3.096c0,0.48,0.574,0.918,1.721,1.309
		c0.979,0.338,1.775,0.508,2.389,0.508c0.916,0,2.203-0.188,3.857-0.561c1.512-0.338,2.588-0.85,3.229-1.535
		C375.508,88.002,375.66,87.491,375.66,86.778z"/>
</g>
</svg>
