<?xml version="1.0" encoding="utf-8"?>
<!-- Generator: Adobe Illustrator 15.0.1, SVG Export Plug-In . SVG Version: 6.00 Build 0)  -->
<!DOCTYPE svg PUBLIC "-//W3C//DTD SVG 1.1//EN" "http://www.w3.org/Graphics/SVG/1.1/DTD/svg11.dtd">
<svg version="1.1" id="Layer_1" xmlns="http://www.w3.org/2000/svg" xmlns:xlink="http://www.w3.org/1999/xlink" x="0px" y="0px"
	 width="1737.599px" height="441px" viewBox="0 0 1737.599 441" enable-background="new 0 0 1737.599 441" xml:space="preserve">
<g>
	<path fill="#B3B5B8" d="M1719.61,410.819c-4.192-0.191-9.206-0.377-11.535-0.832c-12.767-2.499-19.001-7.173-23.353-15.267
		c-2.995-5.564-6.215-24.992-6.215-45.803v-39.184c0-27.823-2.218-47.854-8.315-58.639c-5.387-9.553-10.359-16.539-22.668-25.027
		l-11.094-6.601l11.094-6.598c12.309-8.493,17.281-15.48,22.668-25.032c6.098-10.786,8.315-30.81,8.315-58.63V90.014
		c0-20.816,3.22-40.235,6.215-45.796c4.352-8.096,10.586-12.773,23.353-15.262c2.329-0.459,7.343-0.655,11.535-0.842
		c9.03-0.407,12.169-5.401,12.169-10.377c0-5.539-3.441-10.251-10.631-10.251c-23.211,0-38.002,6.576-47.701,18.166
		c-9.27,11.09-14.255,29.751-14.255,77.943v31.159c0,22.8-2.979,38.871-9.124,49.14c-6.721,11.246-16.785,16.179-39.349,23.454
		c-3.341,1.067-6.02,1.681-7.056,2.949c-0.406,0.514-1.753,2.812-1.753,9.17c0,6.355,1.347,8.654,1.753,9.171
		c1.036,1.263,3.715,1.874,7.056,2.946c22.817,7.415,32.628,12.212,39.349,23.453c6.146,10.267,9.124,26.344,9.124,49.144v31.163
		c0,48.178,4.985,66.843,14.255,77.931c9.699,11.597,24.49,18.176,47.701,18.176c7.189,0,10.631-4.718,10.631-10.255
		C1731.779,416.22,1728.641,411.223,1719.61,410.819z"/>
</g>
<g>
	<path fill="#B3B5B8" d="M79.646,217.364l25.109-73.126c1.089-2.804,2.588-4.83,4.497-6.076c1.908-1.25,4.653-1.872,8.244-1.872
		h19.154c2.49,0,4.379,0.682,5.661,2.045c1.292,1.362,1.938,3.33,1.938,5.902c0,2.957-0.802,5.001-2.399,6.128
		c-1.601,1.132-4.536,1.695-8.824,1.695h-1.863l3.269,106.313h2.682c5.061,0,8.451,0.564,10.168,1.689
		c1.707,1.125,2.572,3.254,2.572,6.36c0,2.729-0.709,4.817-2.107,6.253c-1.401,1.436-3.428,2.162-6.073,2.162h-32.831
		c-4.516,0-7.588-0.617-9.224-1.872c-1.637-1.245-2.452-3.424-2.452-6.543c0-3.035,0.971-5.132,2.917-6.307
		c1.944-1.16,5.686-1.742,11.212-1.742h5.023l-2.451-100.47l-23.128,67.167c-1.171,3.278-2.608,5.532-4.325,6.774
		c-1.708,1.246-4.281,1.874-7.706,1.874c-3.273,0-5.76-0.646-7.477-1.927c-1.718-1.281-3.12-3.526-4.209-6.721l-23.48-67.167
		l-2.102,100.47h7.827c4.596,0,7.831,0.617,9.696,1.863c1.869,1.244,2.807,3.315,2.807,6.187c0,3.119-0.817,5.298-2.454,6.543
		c-1.636,1.255-4.751,1.872-9.351,1.872H17.262c-2.726,0-4.771-0.698-6.133-2.108c-1.364-1.398-2.045-3.496-2.045-6.306
		c0-3.106,0.859-5.235,2.572-6.36c1.712-1.125,5.098-1.689,10.158-1.689h2.574l3.389-106.313h-1.871
		c-4.28,0-7.243-0.563-8.878-1.695c-1.637-1.127-2.456-3.172-2.456-6.128c0-2.572,0.666-4.54,1.991-5.902
		c1.324-1.363,3.232-2.045,5.722-2.045h19.159c3.581,0,6.325,0.622,8.235,1.872c1.908,1.246,3.37,3.271,4.378,6.076L79.646,217.364z
		"/>
</g>
<g>
	<path fill="#B3B5B8" d="M183.496,226.01c0.618,11.209,4.417,19.877,11.386,25.995c6.97,6.115,16.494,9.167,28.56,9.167
		c9.117,0,19.049-2.434,29.79-7.304c10.75-4.862,17.255-7.299,19.509-7.299c2.335,0,4.289,0.737,5.844,2.228
		c1.554,1.473,2.335,3.307,2.335,5.487c0,2.257-0.819,4.317-2.455,6.19c-1.637,1.863-4.243,3.697-7.824,5.488
		c-7.789,3.816-15.831,6.733-24.127,8.761c-8.288,2.026-16.528,3.044-24.708,3.044c-17.755,0-31.969-5.125-42.636-15.368
		c-10.669-10.243-16.002-23.816-16.002-40.71c0-17.212,5.642-31.153,16.938-41.824c11.295-10.669,26.005-16.004,44.156-16.004
		c16.438,0,30.059,4.986,40.89,14.954c10.823,9.969,16.24,22.041,16.24,36.214c0,4.36-0.918,7.281-2.755,8.758
		c-1.827,1.48-6.787,2.223-14.893,2.223h-1.744H183.496z M184.078,210.706h76.049c-1.17-9.269-5.043-16.725-11.622-22.372
		c-6.58-5.644-14.659-8.469-24.243-8.469c-10.352,0-19.076,2.726-26.164,8.179C191.01,193.494,186.339,201.045,184.078,210.706z"/>
</g>
<g>
	<path fill="#B3B5B8" d="M413.976,268.642c0,10.906-0.542,18.638-1.635,23.191c-1.091,4.561-2.953,8.55-5.606,11.978
		c-4.364,5.76-10.468,10.14-18.34,13.139c-7.868,2.998-17.127,4.498-27.806,4.498c-8.877,0-15.357-0.854-19.445-2.572
		c-4.091-1.707-6.137-4.435-6.137-8.18c0-2.405,0.991-4.525,2.982-6.359c1.981-1.834,4.344-2.744,7.069-2.744
		c2.101,0,5.334,0.29,9.696,0.873c4.361,0.58,7.669,0.87,9.924,0.87c11.533,0,19.709-2.634,24.539-7.941
		c4.821-5.289,7.24-14.357,7.24-27.214v-14.133c-4.754,5.526-10.006,9.579-15.767,12.141c-5.771,2.581-12.387,3.862-19.865,3.862
		c-14.558,0-26.617-4.844-36.16-14.548c-9.532-9.688-14.303-21.974-14.303-36.854c0-14.953,4.909-27.353,14.714-37.208
		c9.813-9.851,21.964-14.776,36.447-14.776c5.999,0,11.859,1.11,17.584,3.331c5.726,2.219,11.505,5.59,17.348,10.105v-8.41
		c0-1.637,0.525-2.844,1.582-3.621c1.045-0.782,2.697-1.172,4.962-1.172h17.637c3.118,0,5.453,0.682,7.007,2.044
		c1.563,1.363,2.336,3.407,2.336,6.133c0,3.116-0.973,5.298-2.917,6.543c-1.943,1.246-5.607,1.867-10.979,1.867h-2.107V268.642z
		 M363.278,184.188c-10.204,0-18.536,3.154-24.999,9.46c-6.462,6.311-9.696,14.486-9.696,24.531c0,9.897,3.234,18.011,9.696,24.364
		c6.462,6.343,14.794,9.514,24.999,9.514c10.125,0,18.439-3.17,24.945-9.514c6.496-6.353,9.751-14.467,9.751-24.364
		c0-9.887-3.256-18.029-9.751-24.412C381.717,187.377,373.403,184.188,363.278,184.188z"/>
</g>
<g>
	<path fill="#B3B5B8" d="M536.989,260.01c-6.385,5.761-13.339,10.159-20.854,13.196c-7.512,3.033-15.24,4.561-23.19,4.561
		c-11.604,0-20.966-3.237-28.087-9.707c-7.125-6.46-10.695-14.866-10.695-25.226c0-12.304,4.733-21.85,14.193-28.625
		c9.471-6.776,22.765-10.166,39.893-10.166c4.527,0,9.079,0.299,13.677,0.878c4.587,0.588,9.306,1.5,14.132,2.746v-0.819
		c0-8.957-2.145-15.576-6.425-19.857c-4.279-4.284-10.942-6.424-19.978-6.424c-6.077,0-12.848,1.636-20.327,4.904
		c-7.477,3.269-12.422,4.905-14.838,4.905c-2.255,0-4.125-0.914-5.607-2.744c-1.481-1.831-2.219-4.184-2.219-7.065
		c0-4.596,4.309-8.492,12.904-11.684c8.615-3.191,19.611-4.792,33.005-4.792c13.703,0,24.066,3.486,31.078,10.46
		c7.008,6.97,10.515,17.266,10.515,30.896v52.926h5.718c5.532,0,9.23,0.582,11.104,1.742c1.861,1.175,2.798,3.272,2.798,6.307
		c0,2.81-0.77,4.908-2.336,6.306c-1.553,1.41-3.891,2.108-7.005,2.108h-18.337c-2.185,0-3.98-0.662-5.38-1.981
		c-1.398-1.326-2.335-3.233-2.801-5.724L536.989,260.01z M536.057,223.205c-4.28-1.402-8.433-2.435-12.44-3.095
		c-4.011-0.661-8.008-0.993-11.98-0.993c-11.992,0-21.452,2.026-28.388,6.075c-6.925,4.049-10.396,9.5-10.396,16.351
		c0,5.298,2.163,9.66,6.487,13.087c4.321,3.427,9.835,5.144,16.531,5.144c9.888,0,19.058-2.598,27.51-7.769
		c8.447-5.181,12.677-10.568,12.677-16.187V223.205z"/>
</g>
<g>
	<path fill="#B3B5B8" d="M610.237,258.375v-74.89h-2.221c-5.297,0-8.943-0.621-10.923-1.867c-1.989-1.245-2.98-3.427-2.98-6.543
		c0-2.881,0.82-4.966,2.452-6.248c1.636-1.284,4.282-1.93,7.943-1.93h5.488h11.213c2.109,0,3.746,0.43,4.911,1.284
		c1.171,0.859,1.753,2.028,1.753,3.509v7.942c5.688-5.297,11.314-9.21,16.882-11.741c5.57-2.531,11.349-3.798,17.347-3.798
		c11.761,0,21.014,3.664,27.746,10.982c6.733,7.321,10.105,17.448,10.105,30.374v52.926h5.488c3.896,0,6.698,0.635,8.416,1.926
		c1.705,1.282,2.562,3.326,2.562,6.124c0,3.037-0.907,5.198-2.745,6.49c-1.825,1.291-5.082,1.925-9.752,1.925h-25.815
		c-4.981,0-8.179-0.58-9.576-1.753c-1.403-1.171-2.109-3.389-2.109-6.662c0-3.035,0.818-5.132,2.451-6.307
		c1.638-1.16,4.719-1.742,9.234-1.742h4.088v-48.606c0-9.109-2.06-16.059-6.188-20.849c-4.133-4.789-10.132-7.184-17.993-7.184
		c-7.943,0-14.958,2.685-21.027,8.06c-6.081,5.372-9.113,12.032-9.113,19.972v48.606h4.089c4.671,0,7.824,0.582,9.462,1.742
		c1.632,1.175,2.45,3.272,2.45,6.307c0,3.273-0.697,5.491-2.102,6.662c-1.396,1.173-4.82,1.753-10.276,1.753h-21.26h-6.31
		c-3.189,0-5.587-0.681-7.189-2.044c-1.591-1.363-2.388-3.479-2.388-6.371c0-3.106,0.909-5.235,2.743-6.36
		c1.829-1.125,5.387-1.689,10.688-1.689H610.237z"/>
</g>
<g>
	<path fill="#B3B5B8" d="M841.307,227.769c0-5.85,0.582-9.625,1.753-11.338c1.165-1.711,3.38-2.571,6.652-2.571
		c2.81,0,4.905,0.721,6.316,2.162c1.398,1.441,2.1,3.682,2.1,6.715v5.032v38.419c0,2.726-0.748,4.853-2.219,6.379
		c-1.482,1.508-3.544,2.271-6.197,2.271H746.098h-5.487c-2.81,0-4.906-0.698-6.315-2.108c-1.399-1.398-2.103-3.496-2.103-6.306
		c0-3.106,0.838-5.235,2.513-6.36c1.677-1.125,5.467-1.689,11.393-1.689h14.606V153.116h-14.606c-5.762,0-9.524-0.606-11.277-1.814
		c-1.753-1.208-2.628-3.407-2.628-6.603c0-2.878,0.72-5.002,2.166-6.364c1.435-1.363,3.681-2.045,6.715-2.045h5.024h52.68h5.496
		c2.802,0,4.945,0.703,6.428,2.104c1.478,1.403,2.215,3.504,2.215,6.305c0,3.195-0.872,5.395-2.625,6.603
		c-1.754,1.208-5.587,1.814-11.514,1.814h-19.618v105.258h62.147V227.769z"/>
</g>
<g>
	<path fill="#B3B5B8" d="M967.699,260.01c-6.387,5.761-13.338,10.159-20.854,13.196c-7.517,3.033-15.238,4.561-23.183,4.561
		c-11.604,0-20.972-3.237-28.099-9.707c-7.125-6.46-10.684-14.866-10.684-25.226c0-12.304,4.723-21.85,14.191-28.625
		c9.461-6.776,22.755-10.166,39.895-10.166c4.516,0,9.071,0.299,13.666,0.878c4.592,0.588,9.306,1.5,14.131,2.746v-0.819
		c0-8.957-2.136-15.576-6.424-19.857c-4.279-4.284-10.939-6.424-19.972-6.424c-6.072,0-12.85,1.636-20.331,4.904
		c-7.479,3.269-12.421,4.905-14.828,4.905c-2.264,0-4.138-0.914-5.606-2.744c-1.483-1.831-2.229-4.184-2.229-7.065
		c0-4.596,4.308-8.492,12.912-11.684c8.608-3.191,19.603-4.792,32.997-4.792c13.714,0,24.071,3.486,31.081,10.46
		c7.006,6.97,10.512,17.266,10.512,30.896v52.926h5.722c5.528,0,9.228,0.582,11.101,1.742c1.868,1.175,2.805,3.272,2.805,6.307
		c0,2.81-0.78,4.908-2.342,6.306c-1.556,1.41-3.891,2.108-7.008,2.108h-18.339c-2.181,0-3.969-0.662-5.367-1.981
		c-1.412-1.326-2.349-3.233-2.81-5.724L967.699,260.01z M966.764,223.205c-4.279-1.402-8.425-2.435-12.437-3.095
		c-4.011-0.661-7.999-0.993-11.972-0.993c-11.995,0-21.465,2.026-28.388,6.075c-6.934,4.049-10.396,9.5-10.396,16.351
		c0,5.298,2.157,9.66,6.479,13.087c4.323,3.427,9.832,5.144,16.529,5.144c9.897,0,19.066-2.598,27.508-7.769
		c8.452-5.181,12.676-10.568,12.676-16.187V223.205z"/>
</g>
<g>
	<path fill="#B3B5B8" d="M1040.945,258.375v-74.89h-2.219c-5.298,0-8.935-0.621-10.922-1.867c-1.981-1.245-2.982-3.427-2.982-6.543
		c0-2.881,0.818-4.966,2.457-6.248c1.633-1.284,4.288-1.93,7.941-1.93h5.496h11.213c2.102,0,3.734,0.43,4.905,1.284
		c1.165,0.859,1.758,2.028,1.758,3.509v7.942c5.679-5.297,11.302-9.21,16.874-11.741s11.351-3.798,17.346-3.798
		c11.761,0,21.011,3.664,27.747,10.982c6.742,7.321,10.104,17.448,10.104,30.374v52.926h5.489c3.896,0,6.697,0.635,8.413,1.926
		c1.716,1.282,2.574,3.326,2.574,6.124c0,3.037-0.921,5.198-2.746,6.49c-1.838,1.291-5.09,1.925-9.76,1.925h-25.815
		c-4.981,0-8.181-0.58-9.58-1.753c-1.398-1.171-2.096-3.389-2.096-6.662c0-3.035,0.816-5.132,2.45-6.307
		c1.638-1.16,4.707-1.742,9.226-1.742h4.09v-48.606c0-9.109-2.065-16.059-6.19-20.849c-4.123-4.789-10.123-7.184-17.993-7.184
		c-7.942,0-14.947,2.685-21.03,8.06c-6.069,5.372-9.102,12.032-9.102,19.972v48.606h4.077c4.684,0,7.836,0.582,9.469,1.742
		c1.639,1.175,2.455,3.272,2.455,6.307c0,3.273-0.701,5.491-2.107,6.662c-1.398,1.173-4.826,1.753-10.279,1.753h-21.262h-6.307
		c-3.191,0-5.592-0.681-7.182-2.044c-1.597-1.363-2.398-3.479-2.398-6.371c0-3.106,0.922-5.235,2.746-6.36
		c1.838-1.125,5.396-1.689,10.688-1.689H1040.945z"/>
</g>
<g>
	<path fill="#B3B5B8" d="M1263.136,274.838c-1.634,0-2.778-0.408-3.443-1.225c-0.662-0.819-0.988-2.391-0.988-4.734v-9.578
		c-4.682,5.842-10.517,10.377-17.532,13.612c-7.004,3.235-14.601,4.853-22.771,4.853c-14.72,0-27.043-5.244-36.979-15.722
		c-9.93-10.468-14.892-23.499-14.892-39.075c0-16.12,5.297-29.533,15.884-40.244c10.595-10.707,23.787-16.061,39.602-16.061
		c8.026,0,15.224,1.422,21.609,4.261c6.389,2.846,11.876,7.031,16.478,12.559v-44.741h-6.188c-6.779,0-11.158-0.604-13.152-1.808
		c-1.981-1.208-2.983-3.409-2.983-6.603c0-2.803,0.804-4.905,2.4-6.306c1.602-1.402,3.917-2.103,6.956-2.103h23.94
		c2.338,0,4.036,0.391,5.081,1.168c1.059,0.777,1.582,1.983,1.582,3.62v131.662h5.254c3.817,0,6.587,0.635,8.297,1.926
		c1.716,1.282,2.569,3.326,2.569,6.124c0,2.655-0.738,4.716-2.216,6.2c-1.481,1.471-3.471,2.215-5.961,2.215H1263.136z
		 M1186.621,222.387c0,10.743,3.463,19.547,10.398,26.409c6.932,6.852,15.728,10.267,26.396,10.267
		c10.753,0,19.597-3.56,26.518-10.685c6.936-7.125,10.396-16.176,10.396-27.157c0-10.828-3.443-19.743-10.331-26.754
		c-6.902-7.01-15.75-10.514-26.583-10.514c-10.977,0-19.854,3.543-26.632,10.633
		C1190.012,201.673,1186.621,210.937,1186.621,222.387z"/>
</g>
<g>
	<path fill="#B3B5B8" d="M1398.41,260.01c-6.38,5.761-13.328,10.159-20.845,13.196c-7.519,3.033-15.252,4.561-23.189,4.561
		c-11.606,0-20.967-3.237-28.099-9.707c-7.125-6.46-10.688-14.866-10.688-25.226c0-12.304,4.731-21.85,14.193-28.625
		c9.463-6.776,22.762-10.166,39.893-10.166c4.519,0,9.071,0.299,13.666,0.878c4.601,0.588,9.308,1.5,14.142,2.746v-0.819
		c0-8.957-2.145-15.576-6.424-19.857c-4.288-4.284-10.95-6.424-19.98-6.424c-6.074,0-12.854,1.636-20.331,4.904
		c-7.473,3.269-12.412,4.905-14.832,4.905c-2.262,0-4.125-0.914-5.604-2.744c-1.481-1.831-2.22-4.184-2.22-7.065
		c0-4.596,4.301-8.492,12.907-11.684c8.603-3.191,19.611-4.792,33.004-4.792c13.705,0,24.061,3.486,31.068,10.46
		c7.019,6.97,10.514,17.266,10.514,30.896v52.926h5.724c5.539,0,9.234,0.582,11.097,1.742c1.872,1.175,2.809,3.272,2.809,6.307
		c0,2.81-0.78,4.908-2.333,6.306c-1.564,1.41-3.899,2.108-7.019,2.108h-18.337c-2.179,0-3.973-0.662-5.372-1.981
		c-1.405-1.326-2.335-3.233-2.804-5.724L1398.41,260.01z M1397.483,223.205c-4.288-1.402-8.433-2.435-12.441-3.095
		c-4.012-0.661-8.002-0.993-11.976-0.993c-11.995,0-21.455,2.026-28.39,6.075c-6.93,4.049-10.395,9.5-10.395,16.351
		c0,5.298,2.161,9.66,6.48,13.087c4.322,3.427,9.831,5.144,16.526,5.144c9.899,0,19.07-2.598,27.517-7.769
		c8.452-5.181,12.678-10.568,12.678-16.187V223.205z"/>
</g>
<g>
	<path fill="#B3B5B8" d="M1486.03,231.729c0,9.813,2.063,16.975,6.188,21.5c4.123,4.518,10.668,6.782,19.629,6.782
		c8.485,0,15.747-2.69,21.779-8.07c6.046-5.372,9.062-12.105,9.062-20.211v-48.244h-16.014c-3.035,0-5.229-0.64-6.598-1.926
		c-1.361-1.286-2.044-3.291-2.044-6.017c0-2.957,0.743-5.138,2.218-6.54c1.479-1.401,3.863-2.105,7.137-2.105h24.879
		c2.952,0,5.044,0.646,6.252,1.93c1.199,1.282,1.81,4.416,1.81,9.401v80.146h5.368c3.818,0,6.564,0.617,8.232,1.863
		c1.684,1.244,2.518,3.315,2.518,6.187c0,2.81-0.799,4.908-2.398,6.306c-1.59,1.41-3.905,2.108-6.951,2.108h-17.756
		c-2.101,0-3.734-0.426-4.905-1.289c-1.164-0.855-1.747-2.018-1.747-3.499v-7.942c-7.48,5.76-13.883,9.713-19.22,11.859
		c-5.338,2.133-10.957,3.206-16.884,3.206c-12.851,0-22.48-3.407-28.904-10.222c-6.428-6.813-9.646-17.112-9.646-30.896v-52.57
		h-2.448c-5.301,0-8.917-0.621-10.859-1.867c-1.957-1.245-2.931-3.427-2.931-6.543c0-2.726,0.765-4.771,2.283-6.133
		c1.519-1.362,3.869-2.044,7.07-2.044h17.64c2.724,0,4.614,0.544,5.658,1.636c1.054,1.09,1.582,3.507,1.582,7.24V231.729z"/>
</g>
<g>
	<path fill="#B3B5B8" d="M506.459,358.451l5.635,0.737c-0.618,3.87-2.191,6.907-4.727,9.107c-2.534,2.194-5.655,3.286-9.341,3.286
		c-4.618,0-8.334-1.505-11.143-4.523c-2.81-3.017-4.216-7.36-4.216-12.994c0-3.655,0.601-6.836,1.817-9.581
		c1.199-2.727,3.044-4.778,5.515-6.141c2.471-1.384,5.152-2.056,8.062-2.056c3.67,0,6.671,0.928,8.994,2.781
		c2.335,1.854,3.837,4.49,4.491,7.905l-5.563,0.854c-0.533-2.272-1.471-3.978-2.816-5.125c-1.344-1.143-2.982-1.708-4.891-1.708
		c-2.878,0-5.225,1.039-7.022,3.091c-1.801,2.072-2.697,5.345-2.697,9.816c0,4.542,0.861,7.83,2.598,9.894
		c1.746,2.064,4.018,3.08,6.814,3.08c2.244,0,4.116-0.688,5.624-2.063C505.104,363.441,506.056,361.312,506.459,358.451z"/>
	<path fill="#B3B5B8" d="M527.888,353.937c0-6.254,1.732-10.888,5.217-13.904c2.904-2.499,6.439-3.745,10.619-3.745
		c4.643,0,8.444,1.52,11.386,4.562c2.945,3.035,4.42,7.244,4.42,12.612c0,4.344-0.646,7.763-1.957,10.25
		c-1.299,2.491-3.195,4.436-5.687,5.807c-2.49,1.374-5.217,2.063-8.162,2.063c-4.726,0-8.553-1.505-11.47-4.543
		C529.337,364.002,527.888,359.644,527.888,353.937z M533.773,353.937c0,4.323,0.936,7.559,2.825,9.724
		c1.892,2.146,4.264,3.215,7.125,3.215c2.845,0,5.208-1.069,7.098-3.235c1.88-2.163,2.825-5.471,2.825-9.894
		c0-4.173-0.945-7.345-2.841-9.499c-1.9-2.144-4.264-3.225-7.082-3.225c-2.861,0-5.233,1.074-7.125,3.206
		C534.709,346.375,533.773,349.608,533.773,353.937z"/>
	<path fill="#B3B5B8" d="M579.264,370.821v-33.77h5.125v4.733c1.063-1.654,2.475-2.988,4.236-3.989
		c1.753-1.008,3.761-1.509,6.004-1.509c2.5,0,4.557,0.51,6.154,1.556c1.598,1.044,2.733,2.488,3.391,4.353
		c2.67-3.944,6.15-5.908,10.43-5.908c3.354,0,5.926,0.928,7.735,2.781c1.798,1.854,2.698,4.705,2.698,8.572v23.181h-5.699v-21.276
		c0-2.288-0.18-3.934-0.554-4.951c-0.371-0.999-1.044-1.815-2.017-2.426c-0.973-0.608-2.115-0.918-3.436-0.918
		c-2.372,0-4.344,0.783-5.914,2.361c-1.573,1.581-2.355,4.107-2.355,7.588v19.622h-5.722v-21.938c0-2.542-0.466-4.452-1.403-5.726
		c-0.933-1.272-2.462-1.907-4.578-1.907c-1.607,0-3.097,0.416-4.473,1.272c-1.362,0.847-2.352,2.088-2.969,3.714
		c-0.622,1.63-0.929,3.989-0.929,7.062v17.523H579.264z"/>
	<path fill="#B3B5B8" d="M646.557,383.769v-46.717h5.217v4.379c1.235-1.708,2.626-3,4.169-3.853
		c1.545-0.872,3.428-1.291,5.626-1.291c2.889,0,5.436,0.736,7.632,2.218c2.207,1.491,3.874,3.58,4.998,6.289
		c1.128,2.705,1.694,5.672,1.694,8.888c0,3.451-0.631,6.559-1.866,9.341c-1.243,2.761-3.045,4.882-5.408,6.359
		c-2.358,1.476-4.85,2.2-7.459,2.2c-1.91,0-3.615-0.398-5.134-1.198c-1.519-0.811-2.761-1.826-3.746-3.054v16.438H646.557z
		 M651.745,354.127c0,4.353,0.881,7.56,2.646,9.641c1.754,2.072,3.887,3.107,6.389,3.107c2.542,0,4.722-1.069,6.531-3.215
		c1.818-2.165,2.727-5.491,2.727-10.016c0-4.3-0.889-7.523-2.662-9.668c-1.772-2.135-3.881-3.21-6.345-3.21
		c-2.435,0-4.594,1.139-6.468,3.427C652.683,346.464,651.745,349.771,651.745,354.127z"/>
	<path fill="#B3B5B8" d="M717.947,370.821v-4.962c-2.627,3.814-6.197,5.723-10.717,5.723c-1.988,0-3.854-0.382-5.579-1.145
		c-1.726-0.764-3.017-1.716-3.854-2.873c-0.833-1.163-1.428-2.569-1.762-4.252c-0.235-1.115-0.354-2.896-0.354-5.344v-20.917h5.727
		v18.729c0,2.988,0.116,5.005,0.355,6.042c0.362,1.51,1.124,2.69,2.286,3.542c1.164,0.857,2.611,1.29,4.328,1.29
		c1.718,0,3.324-0.433,4.835-1.326c1.506-0.872,2.57-2.071,3.196-3.578c0.629-1.525,0.936-3.726,0.936-6.607v-18.092h5.727v33.77
		H717.947z"/>
	<path fill="#B3B5B8" d="M757.567,365.704l0.825,5.062c-1.607,0.335-3.054,0.511-4.324,0.511c-2.081,0-3.69-0.331-4.835-0.994
		c-1.143-0.66-1.951-1.518-2.418-2.589c-0.462-1.072-0.697-3.324-0.697-6.759v-19.431h-4.201v-4.452h4.201v-8.37l5.686-3.436v11.806
		h5.764v4.452h-5.764v19.745c0,1.63,0.113,2.683,0.312,3.156c0.199,0.462,0.525,0.832,0.98,1.107c0.455,0.271,1.107,0.42,1.96,0.42
		C755.694,365.933,756.531,365.859,757.567,365.704z"/>
	<path fill="#B3B5B8" d="M799.323,359.95l5.914,0.729c-0.936,3.452-2.662,6.142-5.181,8.051c-2.522,1.908-5.75,2.853-9.668,2.853
		c-4.941,0-8.857-1.52-11.756-4.563c-2.894-3.032-4.344-7.305-4.344-12.792c0-5.689,1.471-10.098,4.395-13.232
		c2.93-3.145,6.716-4.707,11.379-4.707c4.527,0,8.217,1.527,11.07,4.608c2.869,3.081,4.296,7.405,4.296,12.978
		c0,0.334-0.008,0.844-0.028,1.524h-25.189c0.211,3.721,1.256,6.553,3.144,8.525c1.895,1.973,4.245,2.952,7.062,2.952
		c2.101,0,3.89-0.545,5.372-1.652C797.28,364.123,798.451,362.37,799.323,359.95z M780.521,350.692h18.865
		c-0.255-2.847-0.972-4.975-2.163-6.389c-1.826-2.207-4.189-3.31-7.089-3.31c-2.636,0-4.844,0.876-6.632,2.637
		C781.712,345.393,780.721,347.739,780.521,350.692z"/>
	<path fill="#B3B5B8" d="M825.387,370.821v-33.77h5.141v5.116c1.319-2.39,2.535-3.971,3.646-4.735
		c1.116-0.765,2.336-1.146,3.679-1.146c1.929,0,3.889,0.61,5.882,1.837l-1.973,5.315c-1.399-0.824-2.802-1.244-4.201-1.244
		c-1.255,0-2.371,0.38-3.371,1.125c-0.999,0.765-1.709,1.802-2.136,3.144c-0.634,2.037-0.944,4.256-0.944,6.672v17.686H825.387z"/>
	<path fill="#B3B5B8" d="M888.986,360.744l5.67-0.894c0.311,2.263,1.201,4.009,2.654,5.217c1.453,1.207,3.479,1.808,6.089,1.808
		c2.627,0,4.579-0.525,5.851-1.598c1.274-1.072,1.909-2.326,1.909-3.773c0-1.3-0.561-2.315-1.69-3.053
		c-0.781-0.51-2.726-1.151-5.85-1.937c-4.199-1.061-7.11-1.981-8.724-2.762c-1.63-0.761-2.853-1.833-3.688-3.196
		c-0.839-1.383-1.256-2.893-1.256-4.547c0-1.498,0.334-2.889,1.027-4.18c0.688-1.28,1.625-2.345,2.817-3.197
		c0.889-0.654,2.107-1.21,3.644-1.674c1.533-0.453,3.18-0.672,4.939-0.672c2.656,0,4.98,0.381,6.981,1.146
		c2.01,0.765,3.489,1.8,4.434,3.089c0.963,1.309,1.618,3.053,1.983,5.236l-5.598,0.762c-0.257-1.732-1.002-3.088-2.216-4.069
		c-1.221-0.975-2.946-1.456-5.166-1.456c-2.633,0-4.508,0.437-5.631,1.303c-1.127,0.86-1.694,1.88-1.694,3.051
		c0,0.737,0.241,1.406,0.711,2.009c0.465,0.61,1.19,1.116,2.189,1.526c0.571,0.207,2.266,0.69,5.062,1.456
		c4.047,1.086,6.871,1.972,8.47,2.653c1.601,0.689,2.861,1.696,3.769,3.016c0.915,1.309,1.378,2.94,1.378,4.887
		c0,1.908-0.567,3.709-1.675,5.4c-1.117,1.689-2.727,2.98-4.816,3.909c-2.107,0.925-4.481,1.378-7.125,1.378
		c-4.399,0-7.742-0.908-10.043-2.726C891.094,367.03,889.623,364.33,888.986,360.744z"/>
	<path fill="#B3B5B8" d="M958.921,358.451l5.636,0.737c-0.617,3.87-2.188,6.907-4.728,9.107c-2.535,2.194-5.649,3.286-9.341,3.286
		c-4.613,0-8.333-1.505-11.14-4.523c-2.809-3.017-4.214-7.36-4.214-12.994c0-3.655,0.598-6.836,1.816-9.581
		c1.198-2.727,3.043-4.778,5.515-6.141c2.473-1.384,5.153-2.056,8.06-2.056c3.674,0,6.671,0.928,8.998,2.781
		c2.335,1.854,3.834,4.49,4.487,7.905l-5.559,0.854c-0.541-2.272-1.475-3.978-2.819-5.125c-1.348-1.143-2.98-1.708-4.888-1.708
		c-2.883,0-5.227,1.039-7.027,3.091c-1.797,2.072-2.698,5.345-2.698,9.816c0,4.542,0.864,7.83,2.598,9.894
		c1.745,2.064,4.02,3.08,6.821,3.08c2.242,0,4.114-0.688,5.622-2.063C957.57,363.441,958.521,361.312,958.921,358.451z"/>
	<path fill="#B3B5B8" d="M982.515,330.78v-6.578h5.726v6.578H982.515z M982.515,370.821v-33.77h5.726v33.77H982.515z"/>
	<path fill="#B3B5B8" d="M1033.094,359.95l5.913,0.729c-0.932,3.452-2.663,6.142-5.176,8.051c-2.529,1.908-5.757,2.853-9.669,2.853
		c-4.944,0-8.863-1.52-11.761-4.563c-2.89-3.032-4.343-7.305-4.343-12.792c0-5.689,1.471-10.098,4.398-13.232
		c2.927-3.145,6.715-4.707,11.375-4.707c4.526,0,8.215,1.527,11.071,4.608c2.868,3.081,4.295,7.405,4.295,12.978
		c0,0.334-0.009,0.844-0.023,1.524h-25.19c0.207,3.721,1.252,6.553,3.144,8.525c1.89,1.973,4.24,2.952,7.058,2.952
		c2.101,0,3.889-0.545,5.372-1.652C1031.048,364.123,1032.219,362.37,1033.094,359.95z M1014.291,350.692h18.866
		c-0.257-2.847-0.974-4.975-2.166-6.389c-1.824-2.207-4.186-3.31-7.084-3.31c-2.637,0-4.846,0.876-6.636,2.637
		C1015.483,345.393,1014.49,347.739,1014.291,350.692z"/>
	<path fill="#B3B5B8" d="M1059.221,370.821v-33.77h5.159v4.798c2.472-3.709,6.061-5.562,10.739-5.562c2.038,0,3.91,0.362,5.62,1.091
		c1.705,0.728,2.989,1.69,3.834,2.881s1.442,2.599,1.781,4.225c0.208,1.064,0.319,2.929,0.319,5.57v20.768h-5.727v-20.539
		c0-2.335-0.228-4.081-0.662-5.233c-0.454-1.164-1.24-2.081-2.374-2.767c-1.137-0.688-2.464-1.032-3.991-1.032
		c-2.443,0-4.542,0.762-6.312,2.316c-1.772,1.556-2.665,4.479-2.665,8.808v18.447H1059.221z"/>
	<path fill="#B3B5B8" d="M1130.509,358.451l5.633,0.737c-0.619,3.87-2.188,6.907-4.723,9.107c-2.54,2.194-5.655,3.286-9.341,3.286
		c-4.621,0-8.333-1.505-11.142-4.523c-2.812-3.017-4.219-7.36-4.219-12.994c0-3.655,0.6-6.836,1.818-9.581
		c1.198-2.727,3.045-4.778,5.515-6.141c2.471-1.384,5.153-2.056,8.062-2.056c3.671,0,6.667,0.928,8.996,2.781
		c2.335,1.854,3.838,4.49,4.489,7.905l-5.562,0.854c-0.532-2.272-1.471-3.978-2.817-5.125c-1.343-1.143-2.98-1.708-4.89-1.708
		c-2.877,0-5.225,1.039-7.021,3.091c-1.801,2.072-2.698,5.345-2.698,9.816c0,4.542,0.86,7.83,2.599,9.894
		c1.742,2.064,4.017,3.08,6.814,3.08c2.244,0,4.116-0.688,5.622-2.063C1129.155,363.441,1130.108,361.312,1130.509,358.451z"/>
	<path fill="#B3B5B8" d="M1177.188,359.95l5.918,0.729c-0.937,3.452-2.663,6.142-5.181,8.051c-2.527,1.908-5.751,2.853-9.67,2.853
		c-4.945,0-8.858-1.52-11.76-4.563c-2.888-3.032-4.343-7.305-4.343-12.792c0-5.689,1.475-10.098,4.398-13.232
		c2.927-3.145,6.717-4.707,11.379-4.707c4.522,0,8.214,1.527,11.065,4.608c2.874,3.081,4.301,7.405,4.301,12.978
		c0,0.334-0.008,0.844-0.027,1.524h-25.19c0.211,3.721,1.254,6.553,3.144,8.525s4.244,2.952,7.062,2.952
		c2.1,0,3.89-0.545,5.371-1.652C1175.145,364.123,1176.32,362.37,1177.188,359.95z M1158.39,350.692h18.862
		c-0.252-2.847-0.974-4.975-2.159-6.389c-1.829-2.207-4.19-3.31-7.091-3.31c-2.635,0-4.842,0.876-6.632,2.637
		C1159.578,345.393,1158.59,347.739,1158.39,350.692z"/>
	<path fill="#B3B5B8" d="M1234.438,383.769v-46.717h5.218v4.379c1.236-1.708,2.626-3,4.173-3.853
		c1.547-0.872,3.428-1.291,5.622-1.291c2.889,0,5.438,0.736,7.638,2.218c2.205,1.491,3.867,3.58,4.996,6.289
		c1.128,2.705,1.69,5.672,1.69,8.888c0,3.451-0.628,6.559-1.864,9.341c-1.244,2.761-3.043,4.882-5.406,6.359
		c-2.363,1.476-4.854,2.2-7.46,2.2c-1.907,0-3.619-0.398-5.136-1.198c-1.516-0.811-2.763-1.826-3.742-3.054v16.438H1234.438z
		 M1239.627,354.127c0,4.353,0.884,7.56,2.646,9.641c1.756,2.072,3.889,3.107,6.39,3.107c2.541,0,4.727-1.069,6.529-3.215
		c1.822-2.165,2.73-5.491,2.73-10.016c0-4.3-0.891-7.523-2.665-9.668c-1.769-2.135-3.876-3.21-6.341-3.21
		c-2.434,0-4.599,1.139-6.472,3.427C1240.565,346.464,1239.627,349.771,1239.627,354.127z"/>
	<path fill="#B3B5B8" d="M1281.567,353.937c0-6.254,1.731-10.888,5.216-13.904c2.904-2.499,6.44-3.745,10.622-3.745
		c4.646,0,8.444,1.52,11.388,4.562c2.943,3.035,4.414,7.244,4.414,12.612c0,4.344-0.646,7.763-1.951,10.25
		c-1.303,2.491-3.197,4.436-5.691,5.807c-2.491,1.374-5.215,2.063-8.159,2.063c-4.725,0-8.55-1.505-11.467-4.543
		C1283.021,364.002,1281.567,359.644,1281.567,353.937z M1287.457,353.937c0,4.323,0.934,7.559,2.826,9.724
		c1.89,2.146,4.26,3.215,7.122,3.215c2.844,0,5.205-1.069,7.095-3.235c1.882-2.163,2.826-5.471,2.826-9.894
		c0-4.173-0.944-7.345-2.839-9.499c-1.903-2.144-4.267-3.225-7.082-3.225c-2.862,0-5.232,1.074-7.122,3.206
		C1288.391,346.375,1287.457,349.608,1287.457,353.937z"/>
	<path fill="#B3B5B8" d="M1332.884,370.821v-33.77h5.142v5.116c1.318-2.39,2.535-3.971,3.645-4.735
		c1.117-0.765,2.338-1.146,3.678-1.146c1.93,0,3.889,0.61,5.881,1.837l-1.971,5.315c-1.402-0.824-2.802-1.244-4.198-1.244
		c-1.254,0-2.372,0.38-3.374,1.125c-0.997,0.765-1.705,1.802-2.135,3.144c-0.635,2.037-0.945,4.256-0.945,6.672v17.686H1332.884z"/>
	<path fill="#B3B5B8" d="M1380.166,365.704l0.823,5.062c-1.605,0.335-3.055,0.511-4.325,0.511c-2.079,0-3.688-0.331-4.834-0.994
		c-1.143-0.66-1.95-1.518-2.42-2.589c-0.46-1.072-0.694-3.324-0.694-6.759v-19.431h-4.204v-4.452h4.204v-8.37l5.687-3.436v11.806
		h5.764v4.452h-5.764v19.745c0,1.63,0.111,2.683,0.311,3.156c0.198,0.462,0.523,0.832,0.98,1.107c0.453,0.271,1.107,0.42,1.963,0.42
		C1378.291,365.933,1379.127,365.859,1380.166,365.704z"/>
	<path fill="#B3B5B8" d="M1400.157,370.821v-29.317h-5.065v-4.452h5.065v-3.599c0-2.272,0.2-3.953,0.604-5.054
		c0.55-1.491,1.521-2.69,2.913-3.616c1.389-0.927,3.335-1.381,5.833-1.381c1.609,0,3.391,0.191,5.344,0.571l-0.855,4.989
		c-1.188-0.209-2.316-0.31-3.381-0.31c-1.735,0-2.96,0.363-3.69,1.108c-0.719,0.746-1.07,2.13-1.07,4.162v3.128h6.577v4.452h-6.577
		v29.317H1400.157z"/>
	<path fill="#B3B5B8" d="M1427.782,353.937c0-6.254,1.733-10.888,5.216-13.904c2.904-2.499,6.44-3.745,10.62-3.745
		c4.645,0,8.446,1.52,11.388,4.562c2.943,3.035,4.418,7.244,4.418,12.612c0,4.344-0.646,7.763-1.955,10.25
		c-1.299,2.491-3.197,4.436-5.689,5.807c-2.489,1.374-5.216,2.063-8.161,2.063c-4.727,0-8.55-1.505-11.468-4.543
		C1429.233,364.002,1427.782,359.644,1427.782,353.937z M1433.667,353.937c0,4.323,0.938,7.559,2.826,9.724
		c1.895,2.146,4.265,3.215,7.125,3.215c2.846,0,5.209-1.069,7.099-3.235c1.882-2.163,2.824-5.471,2.824-9.894
		c0-4.173-0.942-7.345-2.839-9.499c-1.9-2.144-4.265-3.225-7.084-3.225c-2.86,0-5.23,1.074-7.125,3.206
		C1434.605,346.375,1433.667,349.608,1433.667,353.937z"/>
	<path fill="#B3B5B8" d="M1479.031,370.821v-46.619h5.729v46.619H1479.031z"/>
	<path fill="#B3B5B8" d="M1506.685,330.78v-6.578h5.726v6.578H1506.685z M1506.685,370.821v-33.77h5.726v33.77H1506.685z"/>
	<path fill="#B3B5B8" d="M1532.021,353.937c0-6.254,1.734-10.888,5.216-13.904c2.904-2.499,6.441-3.745,10.62-3.745
		c4.649,0,8.446,1.52,11.388,4.562c2.943,3.035,4.418,7.244,4.418,12.612c0,4.344-0.645,7.763-1.955,10.25
		c-1.299,2.491-3.197,4.436-5.688,5.807c-2.49,1.374-5.216,2.063-8.162,2.063c-4.72,0-8.548-1.505-11.465-4.543
		C1533.478,364.002,1532.021,359.644,1532.021,353.937z M1537.906,353.937c0,4.323,0.938,7.559,2.831,9.724
		c1.89,2.146,4.26,3.215,7.12,3.215c2.846,0,5.21-1.069,7.1-3.235c1.879-2.163,2.824-5.471,2.824-9.894
		c0-4.173-0.945-7.345-2.84-9.499c-1.9-2.144-4.264-3.225-7.084-3.225c-2.86,0-5.23,1.074-7.12,3.206
		C1538.845,346.375,1537.906,349.608,1537.906,353.937z"/>
</g>
</svg>
