<svg xmlns="http://www.w3.org/2000/svg" xmlns:xlink="http://www.w3.org/1999/xlink" xmlns:lucid="lucid" width="872.29" height="215.71"><g transform="translate(0 0)" lucid:page-tab-id="0_0"><path d="M0-40h860v165.3H0z" stroke="#000" stroke-opacity="0" stroke-width="2" fill="#fff" fill-opacity="0"/><use xlink:href="#a" transform="matrix(1,0,0,1,4.999999999999886,-35) translate(25.172589983258945 144.04078892299108)"/><use xlink:href="#b" transform="matrix(1,0,0,1,4.999999999999886,-35) translate(416.7215944320437 144.04078892299108)"/><path d="M77.86 125.3h704.28v95.73H77.86z" stroke="#000" stroke-opacity="0" stroke-width="2" fill="#fff" fill-opacity="0"/><use xlink:href="#c" transform="matrix(1,0,0,1,82.85714285714283,130.3125) translate(39.849000961061506 51.071850973462304)"/><use xlink:href="#d" transform="matrix(1,0,0,1,82.85714285714283,130.3125) translate(268.25883169022813 51.071850973462304)"/><use xlink:href="#e" transform="matrix(1,0,0,1,82.85714285714283,130.3125) translate(445.00453404017856 51.071850973462304)"/><defs><path d="M72-174l153-62v-962l-153-62v-174l528-10 307 682 322-672 491-10v184l-147 62v962l153 62V0h-610v-174l160-62v-770c-84 217-192 411-287 617l-221 10-236-485-34-107v735l157 62V0H72v-174" id="f"/><path d="M391-485c7 151 96 259 248 260 129 0 265-54 344-97l88 170C972-74 794 20 604 20 257 20 68-185 72-532c4-359 189-587 546-594 351-9 516 267 453 634zm375-191c0-117-50-207-168-205-120 0-188 94-203 205h371" id="g"/><path d="M774-184c239-2 407 95 410 317 0 117-48 212-144 283S800 522 610 522c-172 0-303-23-393-68S82 333 82 225C79 91 207 13 297-20c-58-11-128-57-123-136 0-42 36-119 107-231-85-61-158-161-158-320 0-276 213-421 491-419 91 0 172 16 242 49l352-8v163l-168 29c12 35 35 98 35 162 0 290-201 420-491 420-36 2-80-8-105-11l-8 138h303zM604-915c-124 1-174 67-174 194 0 121 46 205 164 205 133-2 173-68 174-205 0-124-45-193-164-194zM477 41c-42 22-99 65-98 133 0 49 21 82 61 98 70 33 334 32 396-8 39-25 61-57 61-106-6-107-82-117-205-117H477" id="h"/><path d="M733-133C665-69 538 21 401 20 201 21 80-99 82-301c1-312 296-350 637-338v-113c0-100-53-150-158-149-68-1-134 15-180 31l-31 129H166l-14-303c110-35 291-83 444-82 298-5 430 109 430 405v506l154 37v164L770 0zM379-332c-3 79 43 123 121 123 93-2 172-74 219-119v-137H602c-134 2-218 20-223 133" id="i"/><path d="M520-965c83-63 228-157 377-157 205-1 311 151 311 364v543l144 51V0H788v-164l113-51v-487c2-89-52-165-139-164-97-1-177 66-219 116v535l112 51V0H72v-164l164-51v-666L72-932v-164l434-10" id="j"/><g id="a"><use transform="matrix(0.05352686321924603,0,0,0.05352686321924603,0,0)" xlink:href="#f"/><use transform="matrix(0.05352686321924603,0,0,0.05352686321924603,96.24130006820437,0)" xlink:href="#g"/><use transform="matrix(0.05352686321924603,0,0,0.05352686321924603,158.06482708643352,0)" xlink:href="#h"/><use transform="matrix(0.05352686321924603,0,0,0.05352686321924603,224.91987924727184,0)" xlink:href="#i"/><use transform="matrix(0.05352686321924603,0,0,0.05352686321924603,290.75792100694446,0)" xlink:href="#j"/></g><path d="M891-471h194V0H61v-174l154-62v-962l-154-62v-174l625-10v184l-154 62v952h314" id="k"/><path d="M811-109C745-46 642 22 502 20 199 15 82-207 82-526c-1-382 181-601 559-600 42 0 93 7 154 20v-260l-164-41v-164l471-16v1368l164 41v164L829 0zM596-225c94 2 166-63 199-117v-508c-44-21-97-31-160-31-184 3-234 143-236 338 2 181 37 311 197 318" id="l"/><path d="M518 20c-212 1-323-148-323-366v-535L31-932v-164l471-10v707c2 106 25 161 125 163 99 1 184-62 231-110v-535l-164-51v-164l471-10v891l164 41v160L897 0l-20-143C802-76 666 21 518 20" id="m"/><g id="b"><use transform="matrix(0.05352686321924603,0,0,0.05352686321924603,0,0)" xlink:href="#k"/><use transform="matrix(0.05352686321924603,0,0,0.05352686321924603,59.14718385726687,0)" xlink:href="#i"/><use transform="matrix(0.05352686321924603,0,0,0.05352686321924603,124.98522561693949,0)" xlink:href="#j"/><use transform="matrix(0.05352686321924603,0,0,0.05352686321924603,200.02988785032244,0)" xlink:href="#l"/><use transform="matrix(0.05352686321924603,0,0,0.05352686321924603,269.93597121465774,0)" xlink:href="#i"/><use transform="matrix(0.05352686321924603,0,0,0.05352686321924603,335.7740129743304,0)" xlink:href="#m"/></g><path d="M1329-19c130-38 331-87 442-128l-14-75c-204 21-584 77-763 77-153 0-268-13-346-35-207-57-462-282-457-526 0-16 50-185 54-196 66-161 221-306 469-433l192-99c24-23 41-41 51-54 205-66 129-43 451-171 17-17 27-35 28-56-117-13-205 8-316 56-46 20-127 59-244 114-237 110-411 211-524 302C167-1094 75-925 75-738c0 123 15 219 44 286 67 153 220 297 461 432 45 25 120 37 226 37 60 0 496-22 523-36" id="n"/><path d="M491 14C283 14-89-170 122-358c33-30 98-68 163-147 82-99 375-188 567-188 52 0 197 67 218 97 29 25 96 178 96 231 0 71-15 132-45 183-27 46-124 91-291 136C681-6 568 14 491 14zM191-237c-14 68 236 136 308 136 69 0 165-14 289-42 113-25 194-64 242-115 23-23 34-62 34-115 0-93-154-211-251-204-10 0-88 14-233 43-56 11-107 33-153 65-157 112-236 189-236 232" id="o"/><path d="M765-347c0 21-6 100-6 119 25 5 38 9 39 10 27-9 140-74 339-194 16-15 40-38 79-57 124-59 212-82 259-82 63 0 95 62 95 186 0 11-15 368-14 378-19 1-38 10-57 27-49-39-73-100-73-182-1-77 33-232-6-282h-35c-69 5-502 284-630 362-29 0-69-19-119-56-10-16 16-169 16-189 0-42-9-76-28-103h-34c-30 0-176 120-438 359H94c-17-26-26-45-26-57 0-19 43-56 130-111 13-8 89-75 228-202 105-95 187-143 245-143 63 0 94 72 94 217" id="p"/><path d="M1054-450c0 68-65 147-195 237-91 64-186 119-286 160C475-12 464-3 388-6l-28-31c14-35 32-62 54-79 27-11 63-26 109-44 267-104 401-204 401-303 0-122-405-102-549-74-127 24-206 53-235 95-9 35-23 84-44 146-39-61-59-110-59-148 0-41 11-75 33-101 26-31 114-64 265-97 135-30 233-45 294-45 283 0 425 79 425 237zM69 932c-28 2-69-43-69-71C0 676 65 363 196-78c18-61 44-121 77-181 11-21 42-43 93-68 21 15 32 32 32 51 5 12-93 201-88 201-107 359-168 689-183 992-39 9-58 14-58 15" id="q"/><path d="M275 40C145 40 51-170 51-314c0-64 13-130 40-197 10 0 20-5 31-14 13 7 30 21 52 42-7 53-10 99-10 138 0 161 52 242 157 242 101 0 223-63 365-189 23-20 129-120 320-299 27-2 50 3 48 27 8 52-308 381-351 406-24 13-70 49-141 104-44 34-212 94-287 94" id="r"/><path d="M114-459c-10 8-118-85-110-95 0-41 73-72 220-92 179-25 287-46 321-65 20-11 42-144 66-395 12-134 48-363 90-554 2-8 26-22 70-43l17 123c-26 155-69 314-77 485l-17 357 404-4v66c-153 0-284 25-394 76-27 12-43 29-49 51 1 40-25 188-21 266 4 96 24 205-30 263-5-1-20-7-44-17-26-67-39-146-39-235 0-30 21-231 21-263 0-20-7-35-21-45-60 11-202 29-304 43-7 4-73 28-59 78h-44" id="s"/><path d="M281-195c2 23 214 70 251 70 174 0 276-16 438 18 25 16 44 34 55 54-25 29-57 44-96 44-235-5-426 16-628-37C170-81 94-118 77-167c-19-55-29-107-29-157 0-196 191-302 398-302 161 0 294 70 296 218 0 37-64 79-192 123-117 40-182 60-247 56 0 9-7 21-22 34zm332-257c-102-107-435-58-437 96 0 18 6 31 18 38 108 4 101-5 248-57 101-36 157-64 171-77" id="t"/><path d="M81-70c10-171-5-207 82-408 61-141 196-155 449-155 184 0 292 25 323 73v42l-32 29c-132-50-216-25-361-29-1 0-25 7-70 22-29 2-73 3-127 22-121 43-171 158-171 312 0 60 10 149 9 155-15 4-40 8-74 12-19-36-28-61-28-75" id="u"/><g id="c"><use transform="matrix(0.021410745287698412,0,0,0.021410745287698412,0,0)" xlink:href="#n"/><use transform="matrix(0.021410745287698412,0,0,0.021410745287698412,36.4624992249504,0)" xlink:href="#o"/><use transform="matrix(0.021410745287698412,0,0,0.021410745287698412,63.076055617559526,0)" xlink:href="#p"/><use transform="matrix(0.021410745287698412,0,0,0.021410745287698412,97.67582000248015,0)" xlink:href="#q"/><use transform="matrix(0.021410745287698412,0,0,0.021410745287698412,120.71378193204364,0)" xlink:href="#r"/><use transform="matrix(0.021410745287698412,0,0,0.021410745287698412,142.57415287078373,0)" xlink:href="#s"/><use transform="matrix(0.021410745287698412,0,0,0.021410745287698412,165.8048115079365,0)" xlink:href="#t"/><use transform="matrix(0.021410745287698412,0,0,0.021410745287698412,188.35032629588292,0)" xlink:href="#u"/></g><path d="M1631-544c0 73-178 180-248 202-36 11-250 62-643 151C444-124 251-54 162 20c-14-1-30-10-48-26v-62c184-138 302-151 584-225 235-62 509-103 705-203 9-5 28-23 59-56-49-80-128-108-239-142-43-13-127-37-250-74-573-175-859-341-859-496 0-45 15-78 44-98 372-119 815-210 1038-210 123 0 208 27 255 82-9 10-14 21-15 32-114-16-180-24-197-24-218 7-636 102-848 158-63 17-112 40-149 68 41 69 116 130 223 181 16 7 99 70 274 118l206 56c457 127 686 246 686 357" id="v"/><path d="M452-24C299-19 42-109 42-244c0-79 57-150 171-212 166-90 270-139 312-135l126 13c-18-8-17 60-21 59-82 21-447 190-447 262 0 65 81 106 244 125 31 3 47 6 59 4l502-76 18 15v47C881-72 797-80 600-44c-82 15-131 20-148 20" id="w"/><path d="M364-970c4 31-25 59-81 99-16-5-49-32-98-82 51-110 79-77 179-17zm-80 528c0 44-27 381-26 424-32 18-61 27-86 27-11-31-16-69-16-114 0-252 31-386 94-401 24 13 34 27 34 64" id="x"/><path d="M857-636c37 0 86 58 83 96-9 138-42 455-65 633-1 11-12 16-32 16-52 0-86-169-83-231-5-5 56-311 51-315 0-39-11-59-32-59-56-2-304 142-344 172-94 70-207 197-311 315-16 17-48 25-95 26v-67c0-31 61-100 184-207 98-85 201-163 308-232 151-98 263-147 336-147" id="y"/><g id="d"><use transform="matrix(0.021410745287698412,0,0,0.021410745287698412,0,0)" xlink:href="#v"/><use transform="matrix(0.021410745287698412,0,0,0.021410745287698412,36.71942816840278,0)" xlink:href="#w"/><use transform="matrix(0.021410745287698412,0,0,0.021410745287698412,59.09365699404762,0)" xlink:href="#x"/><use transform="matrix(0.021410745287698412,0,0,0.021410745287698412,68.36450970362104,0)" xlink:href="#t"/><use transform="matrix(0.021410745287698412,0,0,0.021410745287698412,90.91002449156748,0)" xlink:href="#y"/><use transform="matrix(0.021410745287698412,0,0,0.021410745287698412,113.19861033606152,0)" xlink:href="#w"/><use transform="matrix(0.021410745287698412,0,0,0.021410745287698412,135.57283916170636,0)" xlink:href="#t"/></g><path d="M1250-1864c331 0 580 188 578 508 3 8-54 157-57 158-55 91-159 170-313 236-126 54-313 146-573 238-224 79-306 81-520 220-26 193-34 398-59 603-21 28-47 42-78 42 3 0 4 0 4-1-5-3-21-7-49-13-1-95 1-174 16-263-3 2 41-108 36-108 0-38-7-77-21-116-9 27-26 44-51 52-29-17-44-47-44-90 1-12 172-235 162-252 58-275 93-709 242-828l57 43v44c-35 27-59 77-75 149-15 66-30 196-73 300-46 110-30 121-32 240 6 6 12 9 17 9 45 7 248-79 271-85 309-77 547-171 714-273 147-89 235-149 267-181 37-37 56-86 56-149 0-212-239-385-456-379-262 7-553 76-760 153-209 78-324 161-345 251l-26 19c-110-105-57-154 74-252 71-53 138-84 194-101 377-115 658-174 844-174" id="z"/><path d="M1278-1690c209 0 540 124 527 306-1 0-7 18-16 53-151-218-451-312-738-191-211 89-240 188-329 418-51 130-72 231-72 299 0 22 28 247 28 261 29 23 52 35 67 35 2 3 88-21 89-20 108-10 507-12 663 2-6 0-20 9-43 27l3 28c-247 20-572 7-719 114 20 71 63 164 129 279v55c-7 12-19 18-38 18-18 0-63-61-138-181S570-367 553-367c-101 5-189 22-298 66-65 26-103 37-114 37-37 0-77-23-121-68-1-33 13-54 42-68 77-36 231-65 462-86 13-9 23-19 30-30-42-344 10-660 157-878 132-196 319-296 567-296" id="A"/><path d="M242-1817c70-10 69 50 85 107L270-446c-3 3-5 11-5 24 0 120 25 194 57 411 1 5-23 20-45 21-72 5-137-99-137-262 0-304 9-560 45-876 28-241 6-543 57-689" id="B"/><g id="e"><use transform="matrix(0.021410745287698412,0,0,0.021410745287698412,0,0)" xlink:href="#z"/><use transform="matrix(0.021410745287698412,0,0,0.021410745287698412,34.06449575272817,0)" xlink:href="#o"/><use transform="matrix(0.021410745287698412,0,0,0.021410745287698412,60.6780521453373,0)" xlink:href="#u"/><use transform="matrix(0.021410745287698412,0,0,0.021410745287698412,82.1102081783234,0)" xlink:href="#s"/><use transform="matrix(0.021410745287698412,0,0,0.021410745287698412,105.34086681547616,0)" xlink:href="#A"/><use transform="matrix(0.021410745287698412,0,0,0.021410745287698412,138.05648561507934,0)" xlink:href="#o"/><use transform="matrix(0.021410745287698412,0,0,0.021410745287698412,164.67004200768847,0)" xlink:href="#B"/><use transform="matrix(0.021410745287698412,0,0,0.021410745287698412,174.26205589657735,0)" xlink:href="#x"/><use transform="matrix(0.021410745287698412,0,0,0.021410745287698412,183.53290860615076,0)" xlink:href="#o"/></g></defs></g></svg>